<svg xmlns="http://www.w3.org/2000/svg">
     <symbol viewBox="0 0 31 31" id="why-1">
            <path d="M13.25 0.1875C13.125 3.3125 12.1875 6.125 10.4375 8.375L5.625 3.5625C7.875 1.6875 10.5 0.5625 13.25 0.1875ZM15.5 13.375L12.5625 10.5C14.875 7.6875 16.1875 4 16.25 0C19.5 0.1875 22.6875 1.375 25.3125 3.5625L15.5 13.375ZM3.5 5.6875L8.3125 10.5C6.0625 12.25 3.25 13.1875 0.125 13.3125C0.5 10.5625 1.625 7.9375 3.5 5.6875ZM20.5 18.4375L17.625 15.5L27.4375 5.6875C29.625 8.3125 30.8125 11.5 31 14.75C27 14.8125 23.3125 16.125 20.5 18.4375ZM15.5 17.625L18.375 20.5625C16.0625 23.375 14.75 27 14.6875 31C11.4375 30.875 8.25 29.6875 5.625 27.5L15.5 17.625ZM27.4375 25.375L22.625 20.5625C24.875 18.8125 27.6875 17.875 30.8125 17.75C30.4375 20.5 29.3125 23.125 27.4375 25.375ZM10.4375 12.625L13.375 15.5L3.5 25.375C1.3125 22.75 0.125 19.5625 0 16.3125C3.9375 16.25 7.625 14.9375 10.4375 12.625ZM17.6875 30.875C17.8125 27.75 18.75 24.9375 20.5 22.6875L25.3125 27.5C23.0625 29.375 20.4375 30.5 17.6875 30.875Z" />
    </symbol>

    <symbol viewBox="0 0 37 32" id="why-2"> 
            <path d="M13.3333 0C15.5208 0 17.3333 1.8125 17.3333 4V8.6875C17.3333 10.3125 16.2083 11.625 14.6458 12.0625C14.4583 12.0625 14.3333 12.3125 14.3333 12.5V13.5C14.3333 13.875 14.5833 14.0625 14.8958 14C15.8333 13.8125 16.6458 13.4375 17.3333 12.875V27.5C17.3333 30 15.2708 32 12.8333 32C10.8333 32 9.14575 30.75 8.58325 28.9375C8.33325 29 8.08325 29 7.83325 29C5.33325 29 3.33325 27 3.33325 24.5C3.33325 24.25 3.33325 23.9375 3.39575 23.625C1.58325 22.875 0.333252 21.125 0.333252 19C0.333252 17.1875 1.33325 15.5625 2.83325 14.6875C2.52075 14.0625 2.33325 13.3125 2.33325 12.5C2.33325 10.4375 3.58325 8.625 5.39575 7.9375C5.33325 7.625 5.33325 7.3125 5.33325 7C5.33325 4.8125 7.08325 3 9.33325 3C9.33325 3 9.39575 3.0625 9.45825 3.0625C9.89575 1.3125 11.4583 0 13.3333 0ZM36.3333 19C36.3333 21.125 35.0208 22.875 33.2083 23.625C33.2708 23.9375 33.3333 24.25 33.3333 24.5C33.3333 27 31.2708 29 28.8333 29C28.5208 29 28.2708 29 28.0208 28.9375C27.4583 30.75 25.7708 32 23.8333 32C21.3333 32 19.3333 30 19.3333 27.5V12.875C19.9583 13.4375 20.7708 13.8125 21.7083 14C22.0208 14.0625 22.3333 13.875 22.3333 13.5V12.5C22.3333 12.3125 22.1458 12.0625 21.9583 12.0625C20.3958 11.625 19.3333 10.3125 19.3333 8.6875V4C19.3333 1.8125 21.0833 0 23.3333 0C25.1458 0 26.7083 1.3125 27.1458 3.0625C27.2083 3.0625 27.2708 3 27.3333 3C29.5208 3 31.3333 4.8125 31.3333 7C31.3333 7.3125 31.2708 7.625 31.2083 7.9375C33.0208 8.625 34.3333 10.4375 34.3333 12.5C34.3333 13.3125 34.0833 14.0625 33.7708 14.6875C35.2708 15.5625 36.3333 17.1875 36.3333 19Z" />
    </symbol>

    <symbol viewBox="0 0 37 32" id="why-3">
        <path d="M34.8259 0.594725C36.0134 3.28223 36.7009 6.53223 36.7009 9.65723C36.7009 20.4072 29.7634 29.2197 19.9509 29.9072C14.8884 30.4697 11.0759 27.8447 9.01344 25.0947C5.82594 27.7822 4.63844 30.5322 4.51344 30.7822C4.07594 31.7822 2.95094 32.2822 1.88844 31.8447C0.888442 31.4072 0.388442 30.2822 0.825942 29.2197C2.32594 25.6572 8.95094 15.9697 24.7009 15.9697C25.2009 15.9697 25.7009 15.5322 25.7009 14.9697C25.7009 14.4697 25.2009 13.9697 24.7009 13.9697C16.5134 13.9697 10.7634 16.4072 6.76344 19.2822C6.70094 18.8447 6.70094 18.4072 6.70094 17.9697C6.70094 11.3447 12.0759 5.96973 18.7009 5.96973H23.7009C27.6384 5.96973 31.0759 3.90723 33.0134 0.532225C33.4509 -0.217775 34.4509 -0.155275 34.8259 0.594725Z" />
    </symbol>

    <symbol viewBox="0 0 31 31" id="why-4">
        <path d="M15.5 0C24.0625 0 31 6.9375 31 15.5C31 24.0625 24.0625 31 15.5 31C6.9375 31 0 24.0625 0 15.5C0 6.9375 6.9375 0 15.5 0ZM15.5 28C22.375 28 28 22.4375 28 15.5C28 8.625 22.375 3 15.5 3C8.5625 3 3 8.625 3 15.5C3 22.4375 8.5625 28 15.5 28ZM19.3125 21.5L14 17.625C13.8125 17.5 13.75 17.25 13.75 17.0625V6.75C13.75 6.375 14.0625 6 14.5 6H16.5C16.875 6 17.25 6.375 17.25 6.75V15.625L21.375 18.6875C21.75 18.9375 21.8125 19.375 21.5625 19.75L20.375 21.3125C20.125 21.6875 19.6875 21.75 19.3125 21.5Z" />
    </symbol>

    <symbol viewBox="0 0 41 28" id="why-5">
        <path d="M12.3333 14C8.45825 14 5.33325 10.875 5.33325 7C5.33325 3.1875 8.45825 0 12.3333 0C16.1458 0 19.3333 3.1875 19.3333 7C19.3333 10.875 16.1458 14 12.3333 14ZM17.0833 16C21.0833 16 24.3333 19.25 24.3333 23.25V25C24.3333 26.6875 22.9583 28 21.3333 28H3.33325C1.64575 28 0.333252 26.6875 0.333252 25V23.25C0.333252 19.25 3.52075 16 7.52075 16H8.02075C9.33325 16.625 10.7708 17 12.3333 17C13.8333 17 15.2708 16.625 16.5833 16H17.0833ZM30.3333 14C27.0208 14 24.3333 11.3125 24.3333 8C24.3333 4.6875 27.0208 2 30.3333 2C33.6458 2 36.3333 4.6875 36.3333 8C36.3333 11.3125 33.6458 14 30.3333 14ZM33.3333 16C37.1458 16 40.3333 19.1875 40.3333 23C40.3333 24.6875 38.9583 26 37.3333 26H26.2708C26.2708 25.875 26.3333 25.75 26.3333 25.625V23.25C26.3333 20.8125 25.3333 18.625 23.8333 17C24.8333 16.375 26.0208 16 27.3333 16H27.5208C28.3958 16.3125 29.3333 16.5 30.3333 16.5C31.2708 16.5 32.2083 16.3125 33.0833 16H33.3333Z" />
    </symbol>

    <symbol viewBox="0 0 32 31" id="why-6">
        <path d="M13.9167 0.1875C13.7917 3.3125 12.8542 6.125 11.1042 8.375L6.29175 3.5625C8.54175 1.6875 11.1667 0.5625 13.9167 0.1875ZM16.1667 13.375L13.2292 10.5C15.5417 7.6875 16.8542 4 16.9167 0C20.1667 0.1875 23.3542 1.375 25.9792 3.5625L16.1667 13.375ZM4.16675 5.6875L8.97925 10.5C6.72925 12.25 3.91675 13.1875 0.791748 13.3125C1.16675 10.5625 2.29175 7.9375 4.16675 5.6875ZM21.1667 18.4375L18.2917 15.5L28.1042 5.6875C30.2917 8.3125 31.4792 11.5 31.6667 14.75C27.6667 14.8125 23.9792 16.125 21.1667 18.4375ZM16.1667 17.625L19.0417 20.5625C16.7292 23.375 15.4167 27 15.3542 31C12.1042 30.875 8.91675 29.6875 6.29175 27.5L16.1667 17.625ZM28.1042 25.375L23.2917 20.5625C25.5417 18.8125 28.3542 17.875 31.4792 17.75C31.1042 20.5 29.9792 23.125 28.1042 25.375ZM11.1042 12.625L14.0417 15.5L4.16675 25.375C1.97925 22.75 0.791748 19.5625 0.666748 16.3125C4.60425 16.25 8.29175 14.9375 11.1042 12.625ZM18.3542 30.875C18.4792 27.75 19.4167 24.9375 21.1667 22.6875L25.9792 27.5C23.7292 29.375 21.1042 30.5 18.3542 30.875Z" />
    </symbol>
    <symbol viewBox="0 0 25 24" id="arrow-right">
        <path d="M16.086 10.657L12.136 6.70698C11.9538 6.51838 11.853 6.26578 11.8553 6.00358C11.8576 5.74138 11.9628 5.49057 12.1482 5.30516C12.3336 5.11975 12.5844 5.01458 12.8466 5.01231C13.1088 5.01003 13.3614 5.11082 13.55 5.29298L19.207 10.95C19.3002 11.0426 19.3741 11.1528 19.4246 11.2741C19.4751 11.3955 19.501 11.5256 19.501 11.657C19.501 11.7884 19.4751 11.9185 19.4246 12.0398C19.3741 12.1612 19.3002 12.2713 19.207 12.364L13.55 18.021C13.4578 18.1165 13.3474 18.1927 13.2254 18.2451C13.1034 18.2975 12.9722 18.3251 12.8394 18.3262C12.7066 18.3274 12.5749 18.3021 12.452 18.2518C12.3291 18.2015 12.2175 18.1273 12.1236 18.0334C12.0297 17.9395 11.9555 17.8278 11.9052 17.7049C11.8549 17.582 11.8296 17.4504 11.8307 17.3176C11.8319 17.1848 11.8595 17.0536 11.9119 16.9316C11.9643 16.8096 12.0405 16.6992 12.136 16.607L16.086 12.657H6.5C6.23478 12.657 5.98043 12.5516 5.79289 12.3641C5.60536 12.1766 5.5 11.9222 5.5 11.657C5.5 11.3918 5.60536 11.1374 5.79289 10.9499C5.98043 10.7623 6.23478 10.657 6.5 10.657H16.086Z"/>
    </symbol>
    <symbol viewBox="0 0 20 15" id="youtube">
        <path d="M15.812 0.248559H4.145C1.855 0.248559 0 2.08356 0 4.34756V10.1156C0 12.3796 1.856 14.2156 4.145 14.2156H15.812C18.102 14.2156 19.957 12.3796 19.957 10.1156V4.34756C19.957 2.08356 18.101 0.247559 15.812 0.247559V0.248559ZM13.009 7.51156L7.552 10.0866C7.51872 10.1026 7.48192 10.1099 7.44503 10.1079C7.40815 10.1059 7.37237 10.0946 7.34103 10.075C7.3097 10.0555 7.28382 10.0283 7.2658 9.99603C7.24779 9.96378 7.23822 9.9275 7.238 9.89056V4.58156C7.23867 4.54443 7.24872 4.50808 7.26722 4.47588C7.28573 4.44369 7.31208 4.4167 7.34382 4.39744C7.37556 4.37817 7.41167 4.36725 7.44877 4.3657C7.48587 4.36415 7.52276 4.37201 7.556 4.38856L13.014 7.12356C13.0504 7.14169 13.0809 7.1697 13.102 7.20438C13.1232 7.23907 13.1341 7.27901 13.1336 7.31963C13.1331 7.36025 13.1211 7.3999 13.0991 7.43402C13.077 7.46815 13.0458 7.49537 13.009 7.51256V7.51156Z" />
    </symbol>
    <symbol viewBox="0 0 25 24" id="facebook">
        <path d="M9.04623 6.09645V8.84445H7.03223V12.2044H9.04623V22.1904H13.1802V12.2054H15.9552C15.9552 12.2054 16.2152 10.5944 16.3412 8.83245H13.1972V6.53445C13.1972 6.19145 13.6472 5.72945 14.0932 5.72945H16.3472V2.23145H13.2832C8.94323 2.23145 9.04623 5.59445 9.04623 6.09645Z" />
    </symbol>
    <symbol viewBox="0 0 25 24" id="instagram">
        <path d="M16.017 2.23145H7.947C6.37015 2.2333 4.85844 2.86059 3.74353 3.97568C2.62862 5.09078 2.00159 6.6026 2 8.17945L2 16.2494C2.00185 17.8263 2.62914 19.338 3.74424 20.4529C4.85933 21.5678 6.37115 22.1949 7.948 22.1964H16.018C17.5948 22.1946 19.1066 21.5673 20.2215 20.4522C21.3364 19.3371 21.9634 17.8253 21.965 16.2484V8.17845C21.9631 6.6016 21.3359 5.08988 20.2208 3.97497C19.1057 2.86007 17.5938 2.23303 16.017 2.23145V2.23145ZM19.957 16.2484C19.957 16.7659 19.8551 17.2782 19.6571 17.7562C19.4591 18.2342 19.1689 18.6686 18.803 19.0344C18.4371 19.4003 18.0028 19.6905 17.5248 19.8885C17.0468 20.0865 16.5344 20.1884 16.017 20.1884H7.947C6.90222 20.1882 5.90032 19.773 5.16165 19.0341C4.42297 18.2952 4.008 17.2932 4.008 16.2484V8.17845C4.00827 7.13367 4.42349 6.13177 5.16235 5.39309C5.90122 4.65441 6.90322 4.23945 7.948 4.23945H16.018C17.0628 4.23971 18.0647 4.65493 18.8034 5.3938C19.542 6.13266 19.957 7.13467 19.957 8.17945V16.2494V16.2484Z"/>
        <path d="M11.9818 7.05029C10.6133 7.05241 9.30136 7.59708 8.33372 8.5649C7.36609 9.53272 6.82168 10.8447 6.81982 12.2133C6.82141 13.5822 7.36585 14.8946 8.33372 15.8627C9.3016 16.8308 10.6139 17.3754 11.9828 17.3773C13.3519 17.3757 14.6645 16.8311 15.6326 15.863C16.6007 14.8949 17.1452 13.5824 17.1468 12.2133C17.1447 10.8444 16.5998 9.53218 15.6315 8.56449C14.6633 7.5968 13.3507 7.05262 11.9818 7.05129V7.05029ZM11.9818 15.3693C11.1451 15.3693 10.3426 15.0369 9.7509 14.4452C9.15922 13.8535 8.82682 13.0511 8.82682 12.2143C8.82682 11.3775 9.15922 10.575 9.7509 9.98337C10.3426 9.39169 11.1451 9.05929 11.9818 9.05929C12.8186 9.05929 13.6211 9.39169 14.2127 9.98337C14.8044 10.575 15.1368 11.3775 15.1368 12.2143C15.1368 13.0511 14.8044 13.8535 14.2127 14.4452C13.6211 15.0369 12.8186 15.3693 11.9818 15.3693Z"/>
        <path d="M17.1559 8.32654C17.8391 8.32654 18.3929 7.77272 18.3929 7.08954C18.3929 6.40636 17.8391 5.85254 17.1559 5.85254C16.4728 5.85254 15.9189 6.40636 15.9189 7.08954C15.9189 7.77272 16.4728 8.32654 17.1559 8.32654Z" />
    </symbol>
    <symbol viewBox="0 0 25 24" id="linkedin">
        <path d="M19.959 11.9503V19.3293H15.681V12.4443C15.681 10.7143 15.062 9.53432 13.514 9.53432C12.332 9.53432 11.628 10.3303 11.319 11.0993C11.206 11.3743 11.177 11.7573 11.177 12.1423V19.3293H6.897C6.897 19.3293 6.955 7.66932 6.897 6.46032H11.177V8.28432L11.149 8.32632H11.177V8.28432C11.745 7.40932 12.76 6.15832 15.033 6.15832C17.848 6.15832 19.959 7.99832 19.959 11.9503ZM2.421 0.257324C0.958 0.257324 0 1.21732 0 2.48032C0 3.71532 0.93 4.70432 2.365 4.70432H2.393C3.886 4.70432 4.813 3.71532 4.813 2.48032C4.787 1.21732 3.887 0.257324 2.422 0.257324H2.421ZM0.254 19.3293H4.532V6.46032H0.254V19.3293Z"/>
    </symbol>
</svg>