<svg width="25" height="25" viewBox="0 0 25 25" fill="none" xmlns="http://www.w3.org/2000/svg">
<path d="M17.1152 13.8978L16.4492 13.3018V8.11578C16.4492 7.05492 16.0278 6.0375 15.2777 5.28736C14.5275 4.53721 13.5101 4.11578 12.4492 4.11578C11.3884 4.11578 10.3709 4.53721 9.6208 5.28736C8.87065 6.0375 8.44922 7.05492 8.44922 8.11578V13.3018L7.78322 13.8978C6.81677 14.7602 6.10909 15.8744 5.73922 17.1158H19.1592C18.7894 15.8744 18.0817 14.7602 17.1152 13.8978ZM15.4492 19.1158C15.4492 19.9114 15.1332 20.6745 14.5705 21.2371C14.0079 21.7997 13.2449 22.1158 12.4492 22.1158C11.6536 22.1158 10.8905 21.7997 10.3279 21.2371C9.76529 20.6745 9.44922 19.9114 9.44922 19.1158H3.44922C3.44786 17.8493 3.71446 16.5969 4.23151 15.4408C4.74855 14.2847 5.50434 13.2511 6.44922 12.4078V8.11578C6.44922 6.52448 7.08137 4.99836 8.20658 3.87314C9.3318 2.74792 10.8579 2.11578 12.4492 2.11578C14.0405 2.11578 15.5666 2.74792 16.6919 3.87314C17.8171 4.99836 18.4492 6.52448 18.4492 8.11578V12.4078C19.3941 13.2511 20.1499 14.2847 20.6669 15.4408C21.184 16.5969 21.4506 17.8493 21.4492 19.1158H15.4492ZM12.4492 20.1158C12.7144 20.1158 12.9688 20.0104 13.1563 19.8229C13.3439 19.6354 13.4492 19.381 13.4492 19.1158H11.4492C11.4492 19.381 11.5546 19.6354 11.7421 19.8229C11.9297 20.0104 12.184 20.1158 12.4492 20.1158Z" fill="white"/>
</svg>
