<svg width="49" height="49" viewBox="0 0 49 49" fill="none" xmlns="http://www.w3.org/2000/svg">
<rect x="0.449219" y="0.115784" width="48" height="48" rx="24" fill="white"/>
<path d="M20.9832 24.1858C21.1062 24.1333 21.2384 24.106 21.372 24.1056C21.5057 24.1051 21.6381 24.1314 21.7614 24.183C21.8848 24.2345 21.9965 24.3103 22.09 24.4058C22.1836 24.5013 22.257 24.6146 22.306 24.7389C22.355 24.8633 22.3786 24.9962 22.3754 25.1298C22.3721 25.2635 22.3421 25.3951 22.2871 25.5169C22.2322 25.6388 22.1533 25.7483 22.0552 25.8392C21.9572 25.93 21.8419 26.0003 21.7162 26.0458C21.0478 26.3092 20.474 26.7676 20.0697 27.3615C19.6654 27.9555 19.4492 28.6573 19.4492 29.3758V31.1158C19.4492 31.381 19.5546 31.6354 19.7421 31.8229C19.9296 32.0104 20.184 32.1158 20.4492 32.1158H28.4492C28.7144 32.1158 28.9688 32.0104 29.1563 31.8229C29.3439 31.6354 29.4492 31.381 29.4492 31.1158V29.4688C29.4493 28.7273 29.2241 28.0032 28.8033 27.3926C28.3826 26.782 27.7862 26.3137 27.0932 26.0498C26.9668 26.0059 26.8504 25.9371 26.751 25.8474C26.6517 25.7577 26.5713 25.649 26.5147 25.5276C26.4582 25.4063 26.4265 25.2749 26.4217 25.1411C26.4169 25.0073 26.439 24.874 26.4866 24.7489C26.5343 24.6238 26.6066 24.5096 26.6993 24.413C26.7919 24.3163 26.903 24.2393 27.026 24.1864C27.1489 24.1335 27.2813 24.1059 27.4151 24.1051C27.549 24.1043 27.6816 24.1304 27.8052 24.1818C28.8768 24.59 29.7991 25.3141 30.4499 26.2583C31.1006 27.2025 31.4491 28.3221 31.4492 29.4688V31.1158C31.4492 31.9114 31.1331 32.6745 30.5705 33.2371C30.0079 33.7997 29.2449 34.1158 28.4492 34.1158H20.4492C19.6536 34.1158 18.8905 33.7997 18.3279 33.2371C17.7653 32.6745 17.4492 31.9114 17.4492 31.1158V29.3758C17.4494 28.2559 17.7865 27.1621 18.4168 26.2364C19.0471 25.3108 19.9413 24.5963 20.9832 24.1858ZM24.4492 14.1158C25.5101 14.1158 26.5275 14.5372 27.2776 15.2874C28.0278 16.0375 28.4492 17.0549 28.4492 18.1158V20.1158C28.4492 21.1766 28.0278 22.1941 27.2776 22.9442C26.5275 23.6944 25.5101 24.1158 24.4492 24.1158C23.3884 24.1158 22.3709 23.6944 21.6208 22.9442C20.8706 22.1941 20.4492 21.1766 20.4492 20.1158V18.1158C20.4492 17.0549 20.8706 16.0375 21.6208 15.2874C22.3709 14.5372 23.3884 14.1158 24.4492 14.1158V14.1158ZM24.4492 16.1158C23.9188 16.1158 23.4101 16.3265 23.035 16.7016C22.6599 17.0766 22.4492 17.5854 22.4492 18.1158V20.1158C22.4492 20.6462 22.6599 21.1549 23.035 21.53C23.4101 21.9051 23.9188 22.1158 24.4492 22.1158C24.9797 22.1158 25.4884 21.9051 25.8634 21.53C26.2385 21.1549 26.4492 20.6462 26.4492 20.1158V18.1158C26.4492 17.5854 26.2385 17.0766 25.8634 16.7016C25.4884 16.3265 24.9797 16.1158 24.4492 16.1158Z" fill="#C1C7CD"/>
</svg>
