<svg width="21" height="21" viewBox="0 0 21 21" fill="none" xmlns="http://www.w3.org/2000/svg">
<path d="M20.4492 8.27878C20.1232 8.46204 19.8519 8.72881 19.6631 9.05166C19.4744 9.37451 19.375 9.7418 19.3752 10.1158C19.3752 10.9048 19.8082 11.5918 20.4492 11.9528L19.7322 14.3588C19.3447 14.2921 18.9462 14.3353 18.5819 14.4836C18.2177 14.6318 17.9023 14.8791 17.6714 15.1974C17.4405 15.5157 17.3034 15.8924 17.2756 16.2846C17.2478 16.6769 17.3305 17.0691 17.5142 17.4168L15.4522 19.0188C15.1792 18.795 14.8543 18.6435 14.5074 18.5782C14.1605 18.5129 13.8027 18.536 13.4671 18.6453C13.1314 18.7545 12.8286 18.9465 12.5866 19.2035C12.3446 19.4604 12.1712 19.7742 12.0822 20.1158L8.79222 20.1078C8.7023 19.7678 8.5286 19.4558 8.287 19.2003C8.0454 18.9447 7.74361 18.7538 7.40921 18.645C7.0748 18.5362 6.71846 18.513 6.37275 18.5774C6.02704 18.6418 5.70299 18.7918 5.43022 19.0138L3.37022 17.3988C3.54879 17.0525 3.62777 16.6635 3.59836 16.275C3.56895 15.8866 3.43231 15.5139 3.20364 15.1984C2.97498 14.883 2.66326 14.6372 2.3032 14.4885C1.94313 14.3397 1.54884 14.2938 1.16422 14.3558L0.449219 11.9408C0.769168 11.7556 1.03473 11.4894 1.21922 11.1691C1.40371 10.8487 1.50062 10.4855 1.50022 10.1158C1.50022 9.33578 1.07922 8.65578 0.449219 8.29078L1.16422 5.87578C1.54892 5.93803 1.94334 5.89227 2.30357 5.74359C2.66379 5.59491 2.97567 5.34915 3.20447 5.03368C3.43327 4.71821 3.57 4.34543 3.59944 3.95684C3.62888 3.56825 3.54988 3.17912 3.37122 2.83278L5.42922 1.21778C5.70199 1.43974 6.02604 1.58978 6.37175 1.6542C6.71746 1.71861 7.0738 1.69535 7.40821 1.58654C7.74261 1.47772 8.0444 1.28682 8.286 1.03129C8.5276 0.775765 8.7013 0.463755 8.79122 0.123784L12.0832 0.115784C12.1722 0.457392 12.3456 0.771132 12.5876 1.02811C12.8296 1.28509 13.1324 1.47705 13.4681 1.58632C13.8037 1.69558 14.1615 1.71864 14.5084 1.65336C14.8553 1.58808 15.1802 1.43658 15.4532 1.21278L17.5132 2.81578C17.3295 3.16347 17.2468 3.55567 17.2746 3.94794C17.3024 4.3402 17.4395 4.71684 17.6704 5.03517C17.9013 5.3535 18.2167 5.60079 18.5809 5.74901C18.9452 5.89723 19.3437 5.94045 19.7312 5.87378L20.4492 8.27778V8.27878ZM15.2722 3.79578C15.2722 3.73278 15.2742 3.67078 15.2772 3.60778L15.1972 3.54578C14.4183 3.75798 13.5941 3.73567 12.8278 3.48166C12.0615 3.22765 11.3872 2.75323 10.8892 2.11778L9.98522 2.11978C9.48914 2.75253 8.81796 3.22544 8.05519 3.4797C7.29242 3.73396 6.47173 3.75833 5.69522 3.54978L5.60022 3.62578C5.63788 4.52846 5.37691 5.41838 4.85771 6.15776C4.33852 6.89714 3.59006 7.44474 2.72822 7.71578C3.23103 8.41457 3.50113 9.2539 3.50022 10.1148C3.50022 10.9968 3.22022 11.8298 2.72822 12.5148C3.59006 12.7858 4.33852 13.3334 4.85771 14.0728C5.37691 14.8122 5.63788 15.7021 5.60022 16.6048L5.69622 16.6798C6.47261 16.472 7.29293 16.4967 8.05539 16.7509C8.81784 17.0051 9.48888 17.4776 9.98522 18.1098L10.8892 18.1118C11.3868 17.4762 12.061 17.0017 12.8272 16.7476C13.5933 16.4936 14.4175 16.4714 15.1962 16.6838L15.2762 16.6218C15.235 15.7163 15.4945 14.8226 16.0141 14.08C16.5338 13.3373 17.2844 12.7873 18.1492 12.5158C17.646 11.8168 17.3755 10.9771 17.3762 10.1158C17.3762 9.23378 17.6572 8.39978 18.1492 7.71578C17.3152 7.45359 16.5866 6.93216 16.0693 6.22733C15.5521 5.52251 15.2732 4.67104 15.2732 3.79678L15.2722 3.79578ZM10.4492 14.1158C9.38835 14.1158 8.37094 13.6944 7.62079 12.9442C6.87065 12.1941 6.44922 11.1767 6.44922 10.1158C6.44922 9.05492 6.87065 8.0375 7.62079 7.28736C8.37094 6.53721 9.38835 6.11578 10.4492 6.11578C11.5101 6.11578 12.5275 6.53721 13.2776 7.28736C14.0278 8.0375 14.4492 9.05492 14.4492 10.1158C14.4492 11.1767 14.0278 12.1941 13.2776 12.9442C12.5275 13.6944 11.5101 14.1158 10.4492 14.1158ZM10.4492 12.1158C10.9797 12.1158 11.4884 11.9051 11.8634 11.53C12.2385 11.1549 12.4492 10.6462 12.4492 10.1158C12.4492 9.58535 12.2385 9.07664 11.8634 8.70157C11.4884 8.3265 10.9797 8.11578 10.4492 8.11578C9.91879 8.11578 9.41008 8.3265 9.03501 8.70157C8.65993 9.07664 8.44922 9.58535 8.44922 10.1158C8.44922 10.6462 8.65993 11.1549 9.03501 11.53C9.41008 11.9051 9.91879 12.1158 10.4492 12.1158Z" fill="white"/>
</svg>
