<svg width="123" height="133" viewBox="0 0 123 133" fill="none" xmlns="http://www.w3.org/2000/svg">
<path d="M122.957 82.4777C122.813 82.8898 122.782 83.3207 122.694 83.7392C122.32 85.5315 121.958 87.3238 121.59 89.1161C121.496 89.572 121.34 90.0091 121.115 90.4213C121.04 90.5525 120.972 90.6836 120.99 90.846C121.103 91.6516 120.903 92.4259 120.741 93.2066C120.428 94.7366 120.11 96.2604 119.804 97.7904C119.629 98.6585 119.286 99.4453 118.712 100.132C118.144 100.813 117.576 101.494 117.008 102.168C116.39 102.899 115.616 103.392 114.704 103.673C113 104.198 111.308 104.76 109.592 105.253C107.694 105.796 105.834 106.471 103.93 107.014C103.512 107.133 103.094 107.258 102.657 107.27C102.55 107.27 102.451 107.283 102.357 107.345C101.589 107.82 100.721 108.007 99.8787 108.27C98.9923 108.551 98.1059 108.825 97.2133 109.094C96.9261 109.181 96.6327 109.312 96.3456 109.306C95.7463 109.287 95.2532 109.537 94.7476 109.806C94.1046 110.137 93.393 110.28 92.7063 110.499C91.4079 110.911 90.097 111.298 88.7986 111.71C88.2368 111.892 87.6688 112.01 87.082 112.023C86.9197 112.023 86.7948 112.079 86.67 112.166C86.2455 112.46 85.7773 112.653 85.2842 112.803C84.0108 113.197 82.7373 113.596 81.4639 113.996C79.6349 114.564 77.7997 115.127 75.9707 115.695C74.1979 116.244 72.4188 116.8 70.646 117.35C67.2814 118.393 63.9168 119.436 60.5522 120.478C59.7032 120.741 58.848 120.809 57.9803 120.616C57.7618 120.566 57.6183 120.616 57.4684 120.784C56.9004 121.409 56.195 121.827 55.3898 122.077C54.4721 122.358 53.5608 122.652 52.6431 122.933C52.0813 123.108 51.5008 123.176 50.9078 123.133C50.7143 123.12 50.5644 123.164 50.4146 123.289C49.934 123.688 49.3784 123.951 48.7854 124.126C47.1749 124.6 45.5768 125.106 43.9663 125.593C42.6804 125.98 41.3945 126.411 40.1086 126.817C37.9675 127.498 35.8139 128.141 33.6727 128.822C32.9299 129.059 32.1808 129.153 31.4068 129.053C31.207 129.028 31.0635 129.072 30.9261 129.209C30.3456 129.759 29.6464 130.09 28.8849 130.302C26.7937 130.889 24.6963 131.47 22.6051 132.057C22.4553 132.1 22.2743 132.094 22.1619 132.232H21.7999C21.3254 131.919 21.0258 131.445 20.6638 131.026C19.4091 129.577 18.1606 128.116 16.8996 126.667C16.6063 126.33 16.5875 126.037 16.7373 125.649C17.3803 123.919 18.0045 122.183 18.5976 120.435C19.022 119.18 19.1906 117.862 19.4715 116.575C19.5401 116.263 19.3591 116.226 19.1157 116.219C17.4615 116.176 15.826 115.957 14.2217 115.576C11.4002 114.902 8.77215 113.796 6.5374 111.904C4.23399 109.949 2.6859 107.489 1.8307 104.591C1.3001 102.786 0.869384 100.969 0.663387 99.0956C0.607206 98.6085 0.682114 98.1089 0.551025 97.628V95.3736C0.694599 95.0988 0.694598 94.799 0.725809 94.5055C0.894352 92.9256 1.27513 91.408 1.993 89.9779C2.1116 89.7468 2.26142 89.5533 2.46741 89.3909C3.36006 88.679 4.24023 87.9545 5.13288 87.2426C5.3264 87.0865 5.45124 86.9054 5.53239 86.6681C6.53116 83.7704 7.33018 80.8165 7.81708 77.7877C8.07301 76.2139 8.21035 74.634 8.19162 73.0352C8.19162 72.7917 8.14168 72.5606 8.05429 72.3358C7.46751 70.862 6.63104 69.5256 5.74463 68.2203C5.23276 67.4647 4.69592 66.7153 4.09666 66.0221C3.84072 65.7348 3.78454 65.4413 3.82824 65.0791C3.9843 63.6615 4.27768 62.2626 4.65222 60.8887C5.67596 57.148 7.19909 53.6133 9.11548 50.2472C10.9882 46.9624 13.1917 43.9148 15.6949 41.0796C15.9071 40.836 16.0132 40.5925 16.0195 40.2802C16.0382 39.381 16.0507 38.4817 16.1318 37.5824C16.5314 32.9673 17.5613 28.5209 19.5901 24.3368C20.8198 21.8075 22.3929 19.5094 24.3842 17.5172C25.1582 16.7428 25.9385 15.9747 26.7188 15.2003C26.7812 15.1379 26.8499 15.0879 26.9373 15.0067C27.0933 15.3689 27.137 15.7249 27.2182 16.0684C27.6676 18.0106 28.1108 19.959 28.7351 21.8575C29.2532 23.425 29.8337 24.9675 30.4892 26.485C30.6452 26.841 30.6515 26.8472 31.0073 26.6786C33.1109 25.6857 35.2833 24.8551 37.5055 24.1619C39.8963 23.4125 42.3308 22.8255 44.809 22.4445C47.1874 22.0823 49.5782 21.8887 51.9814 21.9387C56.3323 22.0323 60.5272 22.8629 64.5347 24.5803C64.6534 24.6303 64.772 24.7177 64.9405 24.6802C64.9717 24.318 65.0092 23.9496 65.0341 23.5811C65.109 22.2946 65.1777 21.0019 65.2526 19.7155C65.34 18.1854 65.4399 16.6617 65.521 15.1316C65.5335 14.8881 65.6334 14.7195 65.8207 14.6133C66.2826 14.3448 66.395 13.9388 66.3825 13.4392C66.37 12.9771 66.395 12.5087 66.4012 12.0404C66.4324 10.7164 66.4761 9.39872 66.4886 8.07478C66.4886 7.79376 66.5697 7.6189 66.8444 7.54396C67.0442 7.48775 67.1066 7.35036 67.1253 7.13803C67.2751 5.20833 67.4374 3.27862 67.5935 1.34892C67.6247 1.00545 67.6497 0.66197 67.6809 0.318495C67.7058 0.00624514 67.7121 0 68.0367 0C69.0854 0.006245 70.1403 0.0249807 71.1891 0.0312257C71.4013 0.0312257 71.5074 0.0936754 71.5386 0.330985C71.7446 2.07334 71.9631 3.81569 72.1816 5.55805C72.2502 6.12634 72.3376 6.68839 72.4001 7.25669C72.425 7.50649 72.5187 7.68135 72.7434 7.79376C73.0368 7.93739 73.1054 8.16846 73.1117 8.48695C73.1429 10.3355 73.1991 12.1777 73.2365 14.0263C73.2365 14.2823 73.299 14.5009 73.4862 14.6695C73.9544 15.0879 74.0668 15.6125 74.098 16.2307C74.1979 18.404 74.3602 20.5773 74.4975 22.7505C74.5724 23.9808 74.6411 25.2111 74.7097 26.4351C74.8034 28.0088 74.9032 29.5826 74.9844 31.1563C74.9969 31.4061 75.1217 31.5247 75.309 31.6496C76.7322 32.5989 78.1055 33.6231 79.4289 34.7097C82.1443 36.9392 84.5788 39.4434 86.5764 42.3473C87.082 43.078 87.6001 43.7899 88.112 44.5143C88.1806 44.608 88.268 44.6954 88.293 44.8516C87.8061 44.939 87.3379 44.8016 86.8448 44.8328C86.876 45.0202 87.0445 45.0826 87.1631 45.1763C88.9672 46.5502 90.7275 47.9803 92.4316 49.4729C95.971 52.5766 99.2795 55.9052 102.201 59.6147C102.245 59.6709 102.295 59.7334 102.344 59.7896C102.511 59.9894 102.725 60.0498 102.987 59.9707C104.667 59.4524 106.34 58.934 108.019 58.4157C108.387 58.3033 108.387 58.3033 108.599 58.6031C109.367 59.6959 110.129 60.795 110.903 61.8817C111.04 62.0815 111.084 62.2751 111.09 62.5124C111.09 64.1798 111.102 65.8472 111.115 67.5147C111.115 67.677 111.084 67.8456 111.152 68.0018C111.34 68.0392 111.496 67.8894 111.727 67.9331C111.664 70.8745 111.652 73.8283 111.639 76.826C112.301 76.6761 112.913 76.5387 113.524 76.4013C114.592 76.1577 115.659 75.9142 116.72 75.6644C116.951 75.6082 117.108 75.6519 117.27 75.8392C119.118 77.9376 120.971 80.0234 122.825 82.1155C122.882 82.1842 122.944 82.2466 123 82.3091V82.4902L122.957 82.4777Z" fill="#0E7DB9"/>
<path d="M22.1617 113.503C22.1305 113.534 22.0868 113.565 22.0806 113.603C22.0306 114.071 21.7372 114.19 21.3127 114.202C18.304 114.283 15.3576 113.977 12.5048 112.953C10.2951 112.16 8.32874 110.992 6.71822 109.262C5.69448 108.163 4.88298 106.921 4.32741 105.534C3.45973 103.367 2.93538 101.106 2.66696 98.7896C2.47969 97.1721 2.4672 95.5547 2.70441 93.9435C2.84174 93.0067 3.10392 92.1012 3.49718 91.2331C3.6033 90.9958 3.75312 90.8022 3.95912 90.6399C4.87674 89.9092 5.78187 89.1723 6.69325 88.4416C6.89925 88.2793 7.04282 88.0919 7.13021 87.8359C8.1914 84.8008 9.05285 81.7158 9.59593 78.5496C9.93301 76.5949 10.139 74.6277 10.0579 72.6418C10.0516 72.4107 10.0142 72.1984 9.93301 71.9861C9.47108 70.7058 8.80315 69.538 8.09153 68.3889C7.43609 67.3273 6.72446 66.3031 5.95041 65.3289C5.77563 65.1103 5.73818 64.8918 5.78187 64.6232C6.29999 61.2946 7.38615 58.1409 8.77194 55.0809C10.988 50.2035 13.9718 45.832 17.5486 41.854C17.7983 41.5792 17.9044 41.3106 17.892 40.9359C17.842 38.5441 18.0792 36.1773 18.4975 33.8229C18.9656 31.2 19.696 28.6583 20.7759 26.2165C21.9619 23.5311 23.5288 21.0956 25.595 18.991C25.6574 18.9286 25.7011 18.8474 25.8384 18.8287C26.7373 22.5007 28.0295 26.0354 29.7087 29.4576C30.6513 28.9518 31.5626 28.4959 32.4927 28.0775C36.132 26.4538 39.9024 25.236 43.8288 24.5178C45.3644 24.2368 46.9062 24.0307 48.4606 23.9246C49.94 23.8184 51.4257 23.7997 52.9176 23.8809C56.4944 24.0745 59.9527 24.7989 63.2736 26.154C63.3298 26.179 63.3797 26.204 63.3797 26.204C62.743 26.8785 62.1 27.5529 61.4071 28.2898C63.155 28.8019 64.8279 29.2953 66.5258 29.7949C66.557 29.3827 66.5945 29.0267 66.6195 28.6708C66.6569 28.0275 66.6881 27.3843 66.7256 26.7411C66.813 25.2423 66.9066 23.7435 66.994 22.2509C67.0939 20.571 67.1875 18.8974 67.2812 17.2174C67.3061 16.8303 67.3498 16.4368 67.3561 16.0496C67.3561 15.8498 67.4122 15.6937 67.5808 15.5937C68.1488 15.269 68.2487 14.7757 68.2487 14.1574C68.2487 12.5212 68.3174 10.885 68.3486 9.24883C68.3486 9.01777 68.4235 8.88662 68.642 8.82417C68.823 8.77421 68.8854 8.64307 68.8979 8.44947C69.0103 6.95692 69.1351 5.45812 69.26 3.96556C69.2974 3.4847 69.3598 3.01008 69.3973 2.53546C69.4098 2.38558 69.441 2.27942 69.622 2.27317C69.8467 2.26068 69.803 2.42929 69.8155 2.54795C69.9279 3.37853 70.034 4.20912 70.1401 5.0397C70.2775 6.1076 70.4023 7.18174 70.5396 8.24963C70.5709 8.51817 70.627 8.78046 70.9267 8.89911C71.1389 8.98654 71.1639 9.16765 71.1639 9.37998C71.1888 10.9725 71.2201 12.5649 71.2575 14.1574C71.2575 14.1699 71.2575 14.1886 71.2575 14.2011C71.2138 14.8006 71.3699 15.319 71.8318 15.7311C72.0565 15.931 72.1252 16.1808 72.1439 16.4868C72.2251 18.148 72.3312 19.8091 72.4311 21.4765C72.5185 22.9441 72.6121 24.4117 72.6995 25.8793C72.8181 27.8839 72.9367 29.8948 73.0615 31.8994C73.099 32.5427 73.1052 32.5427 73.6421 32.8861C76.5697 34.7721 79.2664 36.9329 81.6822 39.4434C82.6185 40.4176 83.4924 41.448 84.2915 42.5409C84.3414 42.6096 84.3851 42.6845 84.4725 42.8219C83.0929 42.8344 81.7758 42.6908 80.4462 42.7345C80.4774 42.8844 80.5898 42.9156 80.6709 42.9656C84.1791 45.2637 87.5062 47.7992 90.6836 50.5345C93.9733 53.376 97.057 56.4173 99.8223 59.7771C100.403 60.4828 100.952 61.2197 101.514 61.9441C101.864 62.3875 101.72 62.375 102.319 62.1877C103.924 61.6943 105.522 61.1885 107.126 60.6889C107.413 60.6014 107.64 60.6785 107.806 60.9199C108.162 61.4258 108.505 61.9316 108.867 62.4312C109.03 62.6498 109.086 62.8684 109.092 63.1369C109.105 65.5225 109.13 67.9143 109.148 70.2999C109.148 70.4061 109.13 70.5122 109.18 70.6122C109.348 70.6496 109.492 70.5247 109.66 70.5435C109.716 70.6684 109.691 70.787 109.691 70.9057C109.666 73.4287 109.641 75.9516 109.623 78.4746C109.623 78.6869 109.641 78.893 109.354 78.9555C109.161 78.9992 109.236 79.1553 109.261 79.3239C109.573 79.2552 109.872 79.199 110.172 79.1303C112.07 78.6932 113.967 78.256 115.865 77.8126C116.14 77.7502 116.352 77.7502 116.57 78.0062C117.919 79.5612 119.286 81.0975 120.653 82.6275C120.821 82.8149 120.871 82.9773 120.815 83.2271C120.428 85.0319 120.066 86.8367 119.692 88.6415C119.585 89.1661 119.386 89.6469 119.017 90.0404C118.899 90.1653 118.855 90.2777 118.918 90.44C119.155 91.0583 119.074 91.6765 118.949 92.301C118.593 94.0184 118.237 95.7358 117.888 97.4532C117.781 97.9777 117.575 98.4524 117.232 98.8645C116.664 99.5452 116.096 100.226 115.528 100.9C115.141 101.363 114.642 101.662 114.074 101.837C112.313 102.38 110.553 102.93 108.793 103.473C108.48 103.573 108.162 103.661 107.825 103.661C107.738 103.661 107.644 103.661 107.563 103.711C106.783 104.198 105.89 104.354 105.035 104.629C104.267 104.878 103.505 105.147 102.706 105.316C102.394 105.384 102.057 105.247 101.776 105.372C101.508 105.49 101.302 105.734 101.021 105.846C100.309 106.127 99.5664 106.321 98.8423 106.552C98.0558 106.802 97.2692 107.045 96.4827 107.283C96.0332 107.42 95.5776 107.489 95.1094 107.364C94.9408 107.32 94.8285 107.37 94.7099 107.489C94.3353 107.876 93.8672 108.101 93.3553 108.257C91.6074 108.794 89.8596 109.337 88.118 109.881C87.5624 110.056 87.0069 110.131 86.4388 109.981C86.2828 109.943 86.1829 109.987 86.0892 110.099C85.6897 110.555 85.1654 110.799 84.5973 110.974C83.3239 111.361 82.0505 111.767 80.777 112.16C80.5461 112.229 80.3151 112.298 80.0779 112.31C80.003 112.31 79.9218 112.316 79.8594 112.347C78.7046 112.903 77.4561 113.172 76.2389 113.559C74.1852 114.215 72.1189 114.845 70.059 115.482C66.7381 116.5 63.4234 117.543 60.1087 118.58C58.9414 118.948 57.8927 118.824 56.9876 117.949C56.9688 117.931 56.9314 117.937 56.8752 117.918C56.8003 118.105 56.7192 118.293 56.6442 118.486C56.3072 119.348 55.6954 119.929 54.809 120.21C53.8789 120.503 52.9488 120.791 52.0187 121.078C51.3945 121.272 50.7702 121.247 50.171 121.003C49.9962 120.934 49.9088 120.953 49.8027 121.109C49.3969 121.734 48.8101 122.083 48.111 122.296C46.8188 122.683 45.5329 123.089 44.247 123.489C44.016 123.557 43.7913 123.632 43.5479 123.638C43.473 123.638 43.3918 123.645 43.3294 123.682C42.2744 124.207 41.1196 124.438 40.0147 124.806C39.2594 125.056 38.4791 125.225 37.73 125.474C36.7937 125.787 35.8511 126.086 34.9148 126.392C34.1719 126.636 33.4291 126.867 32.68 127.073C31.9809 127.267 31.3067 127.148 30.6825 126.798C30.4827 126.686 30.3891 126.68 30.2767 126.911C29.9022 127.704 29.2467 128.179 28.4103 128.416C26.575 128.928 24.7398 129.434 22.9108 129.958C22.6236 130.04 22.4551 129.996 22.2616 129.765C21.2129 128.528 20.1517 127.304 19.0905 126.08C18.9157 125.88 18.8658 125.706 18.9656 125.437C19.5025 123.976 20.0019 122.496 20.5387 121.034C20.8383 120.21 20.9507 119.348 21.138 118.499C21.4688 116.975 21.7684 115.445 22.0806 113.921C22.1118 113.778 22.1243 113.628 22.1492 113.478H22.1555L22.1617 113.503Z" fill="black"/>
<path d="M34.7591 82.0218C34.4844 82.1529 34.1848 82.1904 33.8914 82.2466C33.6417 82.2903 33.4981 82.4277 33.3733 82.6275C33.005 83.227 32.6929 83.864 32.412 84.5073C31.8751 85.7313 31.4569 86.9928 31.0761 88.273C31.0574 88.3292 31.0574 88.3917 31.0324 88.554C31.6504 87.8171 32.3308 87.3113 33.1173 86.9428C33.9101 86.5681 34.7403 86.3246 35.608 86.1934C35.6018 86.3246 35.4957 86.3683 35.4208 86.437C32.3683 89.1161 29.7777 92.2073 27.4805 95.5422C24.5903 99.7263 22.1371 104.154 20.1458 108.832C19.8899 109.431 19.559 109.862 18.9723 110.149C18.4229 110.418 17.8986 110.749 17.3742 111.073C17.1745 111.198 16.9685 111.248 16.7375 111.236C15.6701 111.18 14.6838 110.842 13.7287 110.393C12.0995 109.625 10.67 108.563 9.32789 107.376C8.90965 107.008 8.52263 106.608 8.1044 106.24C7.7798 105.953 7.56131 105.609 7.38653 105.222C6.84969 104.035 6.57503 102.78 6.46266 101.487C6.30661 99.6264 6.41897 97.7654 6.54382 95.9106C6.58127 95.3985 6.61872 94.8927 6.64369 94.3806C6.65618 94.0996 6.77478 93.8623 6.88714 93.6187C7.36156 92.6195 8.07318 91.7827 8.80353 90.9646C9.23425 90.4837 9.6837 90.0216 10.1644 89.5907C10.3142 89.4533 10.4016 89.2972 10.464 89.1036C12.2306 83.3894 14.0034 77.6815 15.77 71.9736C16.0571 71.0431 16.1133 70.0813 16.0883 69.1196C16.0571 67.9955 15.926 66.8776 15.6576 65.7785C15.6326 65.6786 15.6389 65.5662 15.5203 65.4913C14.9522 66.7527 13.941 67.5833 12.7799 68.2578C12.3492 68.5076 12.3429 68.5076 12.0246 68.1079C11.9996 68.0704 11.9746 68.033 11.9559 67.9955C11.8435 67.7707 12.0371 67.702 12.1619 67.6146C13.4353 66.7153 14.2968 65.4913 14.946 64.0924C15.0022 63.9675 15.0521 63.8426 15.0458 63.7052C14.9148 60.1768 15.926 56.8919 17.2244 53.6757C17.6801 52.5516 18.1857 51.4463 18.7788 50.3846C18.8349 50.2784 18.8849 50.166 18.9598 50.0724C19.0035 50.0161 19.0534 49.9475 19.1408 49.9662C19.2282 49.9849 19.2469 50.0661 19.2594 50.141C19.2969 50.3034 19.2781 50.4658 19.2719 50.6344C19.0784 53.7507 19.4342 56.7732 20.8387 59.6085C21.594 61.1322 22.6864 62.3688 24.1659 63.2368C24.272 63.2993 24.3719 63.3617 24.4343 63.4679C24.503 63.674 24.3968 63.8488 24.3219 64.0237C23.4168 66.1033 22.9923 68.2765 23.0735 70.5497C23.0984 71.2991 23.2233 72.0423 23.3606 72.7792C23.4168 73.0852 23.6041 73.235 23.8912 73.3225C24.9399 73.6285 25.9075 73.3724 26.8438 72.9166C27.0373 72.8229 27.1497 72.6355 27.2745 72.4669C27.7115 71.8549 28.1485 71.2491 28.5605 70.6246C28.8102 70.2499 29.1223 69.9689 29.5155 69.7628C31.4007 68.7699 33.2609 67.7394 35.1711 66.7965C35.4645 66.6528 35.7516 66.4842 36.0949 66.4717C36.5069 66.6154 36.5194 67.0275 36.663 67.3398C37.025 68.1204 37.0063 68.1204 37.643 67.5021C38.7979 66.378 39.909 65.229 40.7455 63.8363C41.2761 62.9558 41.7005 62.0315 41.9377 61.0323C42.0626 60.5077 42.2062 60.4266 42.6931 60.6264C44.0539 61.1947 45.4085 61.7567 46.7693 62.3126C47.1813 62.4812 47.3873 62.731 47.4435 63.1681C47.5995 64.3484 47.6182 65.535 47.5371 66.7215C47.3873 68.9447 46.9441 71.1242 46.3198 73.26C46.1076 73.9844 45.8517 74.6901 45.6207 75.4021C45.4709 75.8579 45.1151 76.139 44.7655 76.4262C43.6356 77.3505 42.3809 78.0874 41.1138 78.8118C39.3284 79.836 37.4932 80.7665 35.6517 81.6783C35.3583 81.8219 35.04 81.9281 34.7341 82.0467L34.7591 82.0218Z" fill="white"/>
<path d="M53.055 28.4147C51.9189 29.2578 50.8577 30.0447 49.7153 30.8878C50.427 30.9315 51.045 30.9627 51.6629 31.0064C54.9776 31.2375 58.2548 31.6871 61.4259 32.73C62.5246 33.0922 63.592 33.5294 64.5845 34.1352C64.7656 34.2476 64.8654 34.3537 64.8654 34.5848C64.8654 35.0969 65.0902 35.5403 65.3523 35.9649C65.5771 36.3209 65.833 36.6581 66.1514 36.9329C66.3573 37.1078 66.4135 37.3014 66.3886 37.5637C66.2762 38.6503 66.1701 39.7432 66.064 40.836C66.0203 41.2982 65.9766 41.7603 65.9266 42.2224C65.9017 42.441 65.9204 42.6721 65.8143 42.8906C64.391 42.4597 62.9927 42.0226 61.5882 41.6042C59.8653 41.0921 58.1362 40.605 56.3696 40.2428C56.1574 40.1991 55.864 40.299 55.7579 40.0679C55.6768 39.893 55.7329 39.6557 55.7267 39.4497C55.708 37.7198 55.658 35.9962 55.3771 34.2913C55.3022 33.8292 55.1899 33.3858 55.0213 32.9486C54.9402 32.7425 54.8278 32.6676 54.6156 32.7363C54.2722 32.8487 53.9414 32.9798 53.6168 33.1422C52.3933 33.7667 51.2946 34.5786 50.2335 35.4341C47.6741 37.5075 45.327 39.8056 43.0548 42.185C42.9487 42.2911 42.8613 42.416 42.7427 42.5534C41.6066 41.0109 40.5516 39.4871 39.4967 37.9384C39.4342 38.2007 39.453 38.4567 39.4717 38.719C39.7214 41.854 41.0011 44.583 42.8301 47.0873C44.3657 49.1856 46.2009 50.9967 48.3233 52.5017C49.1785 53.1137 50.0712 53.6633 51.0325 54.1004C51.1386 54.1504 51.2572 54.1816 51.3571 54.3127C50.6267 54.6187 49.8901 54.8311 49.1473 55.0184C47.568 55.4244 45.9637 55.6179 44.3345 55.5118C40.252 55.2557 37.1371 53.351 34.9523 49.91C34.2344 48.7797 33.6788 47.5681 33.2294 46.3067C33.1857 46.1818 33.142 46.0506 33.0921 45.9257C33.0796 45.9007 33.0484 45.8882 32.9984 45.8508C32.4054 47.3558 32.0371 48.9046 31.8998 50.5033C31.7624 52.102 31.8436 53.7007 32.3804 55.3369C32.137 55.1683 32.0434 55.0184 31.9372 54.881C30.9073 53.5009 30.2393 51.9584 29.8273 50.2972C29.2718 48.0802 29.2468 45.8445 29.5901 43.5901C29.7212 42.7283 29.9022 41.879 30.1332 41.0421C30.1519 40.9859 30.1644 40.9297 30.1145 40.8173C27.1806 43.9086 24.4402 47.1123 22.5613 50.9654C22.6362 49.8726 22.8235 48.8047 23.0731 47.7493C23.8035 44.6705 24.9895 41.7853 26.7311 39.1436C29.0907 35.559 32.2181 32.8487 36.0946 31.0189C38.6664 29.8074 41.3694 29.0767 44.1784 28.6645C46.7565 28.2898 49.347 28.2461 51.9501 28.3398C52.2872 28.3523 52.6243 28.3898 53.0612 28.421L53.055 28.4147Z" fill="#BBC5CB"/>
<path d="M24.4215 63.4679C23.2042 62.9308 22.3116 62.0066 21.5375 60.9636C20.4826 59.5335 19.8895 57.8911 19.5275 56.1612C19.3277 55.1808 19.2154 54.1941 19.1467 53.1949C19.103 52.5391 19.103 51.8772 19.078 51.2215C19.0655 50.903 19.2029 50.6032 19.1654 50.2847C19.1529 50.2035 19.2029 50.1098 19.103 50.0099C18.8471 50.4908 18.5724 50.9467 18.3477 51.4338C17.9107 52.3705 17.4738 53.3073 17.0992 54.269C16.4188 56.0114 15.8508 57.7912 15.4949 59.6272C15.3389 60.4453 15.2203 61.2696 15.1891 62.1127C15.1703 62.6498 15.058 63.1806 15.1891 63.7177C15.214 63.8114 15.1641 63.8925 15.1267 63.9737C14.5586 65.2477 13.8095 66.3905 12.7483 67.3148C12.5611 67.4834 12.3426 67.6146 12.1241 67.752C12.0305 67.8144 11.9493 67.8706 11.9431 67.9893C11.3875 67.346 11.0254 66.5904 10.6759 65.8285C10.395 65.229 10.1765 64.6107 9.95177 63.9925C9.85814 63.7364 9.85814 63.5054 9.91432 63.2493C10.4824 60.8263 11.4125 58.5406 12.5673 56.3423C14.7833 52.1332 17.5861 48.3425 20.7697 44.8266C20.8384 44.7516 20.9133 44.6705 20.9882 44.6018C21.0132 44.5768 21.0506 44.558 21.1255 44.5206C20.8633 45.2949 20.6199 46.0319 20.4201 46.7813C19.8646 48.8671 19.5837 50.9904 19.7085 53.1449C19.8396 55.3057 20.3203 57.3853 21.4189 59.2837C21.5188 59.4586 21.5999 59.6522 21.8184 59.8021C22.0306 58.2471 22.5238 56.8232 23.1418 55.4431C24.0781 53.3385 25.2392 51.3651 26.5501 49.4729C26.5813 49.4229 26.6063 49.3667 26.7061 49.3604C26.856 50.0724 26.9808 50.7905 27.1743 51.49C27.63 53.0887 28.2792 54.6 29.2905 55.9302C30.9259 58.0722 33.0795 59.3337 35.7513 59.7146C35.9573 59.7459 36.1632 59.8021 36.3755 59.7771C36.4878 59.7646 36.6127 59.8083 36.7625 59.7271C36.1945 59.1276 35.7575 58.4594 35.539 57.6725C35.3205 56.8857 35.2456 56.0926 35.3954 55.2807C35.5952 55.2557 35.7263 55.3806 35.8636 55.4556C37.7301 56.5047 39.6964 57.2916 41.7938 57.7475C43.3419 58.0847 44.9025 58.2346 46.4818 58.1659C50.3146 58.016 53.7853 56.792 56.9377 54.625C57.0875 54.5251 57.2248 54.4126 57.3684 54.3002C57.4121 54.2628 57.4558 54.219 57.5307 54.1504C56.9689 53.7132 56.4196 53.2885 55.8702 52.8576C55.8765 52.8327 55.8827 52.8014 55.8952 52.7765C58.8416 53.02 61.7942 53.2573 64.7406 53.5009C63.7855 54.2191 62.8304 54.9122 61.8941 55.6991C62.3061 55.8365 62.6868 55.9489 63.0551 56.0863C63.4921 56.2487 63.9166 56.436 64.3535 56.5984C64.5533 56.6733 64.6344 56.7795 64.622 56.9981C64.5907 57.6725 64.572 58.347 64.5658 59.0277C64.5658 59.2213 64.4659 59.2837 64.3161 59.3399C63.6544 59.5835 62.999 59.8458 62.3373 60.0706C62.0064 60.183 61.8067 60.3891 61.6693 60.6889C61.4321 61.2134 61.3198 61.7693 61.2261 62.3313C61.1637 62.7185 61.1075 63.0994 61.0951 63.4929C61.0951 63.6428 61.0576 63.7801 60.9078 63.8801C60.2835 64.2922 59.6656 64.7106 59.0039 65.154C57.7242 63.0245 56.7067 60.8263 56.2323 58.3782C56.0513 58.397 55.9701 58.5531 55.8702 58.6655C55.1649 59.4524 54.7154 60.3766 54.3658 61.3571C53.8789 62.7185 53.6105 64.1299 53.4669 65.5662C53.3608 66.6091 53.3046 67.6583 53.3171 68.7137C53.3171 68.976 53.236 69.2133 53.1486 69.4506C52.6367 70.862 51.9625 72.2046 51.2572 73.5286C50.6392 74.6964 49.965 75.833 49.2908 76.9633C49.1722 77.1632 49.0224 77.3068 48.8164 77.4255C47.3869 78.2311 45.8638 78.8118 44.3157 79.3489C41.2445 80.4106 38.1046 81.2599 34.9522 82.0405C34.8836 82.0592 34.8024 82.053 34.7275 82.0592C34.8211 81.9281 34.9772 81.8969 35.1083 81.8282C36.0322 81.3598 36.9623 80.9164 37.8799 80.4355C39.6277 79.5175 41.3756 78.5995 43.036 77.5191C43.7789 77.0383 44.503 76.5449 45.1459 75.9329C45.3395 75.7518 45.4518 75.5395 45.5392 75.2959C46.126 73.6285 46.5879 71.9299 46.95 70.2062C47.0935 69.5193 47.1497 68.8199 47.2621 68.1329C47.4494 67.0026 47.4431 65.866 47.4369 64.7294C47.4369 64.1174 47.337 63.5116 47.2621 62.9058C47.2371 62.706 47.131 62.6186 46.9749 62.5499C45.7015 62.0253 44.4343 61.5007 43.1609 60.9761C42.9112 60.8762 42.6615 60.7763 42.418 60.6639C42.2308 60.5827 42.1434 60.6452 42.0997 60.8325C42.0497 61.0636 41.9936 61.3009 41.9249 61.5257C41.5254 62.8309 40.845 63.9862 40.0397 65.0729C39.2532 66.1408 38.2731 67.0275 37.3368 67.958C37.2182 68.0767 37.0809 68.1579 36.8936 68.2391C36.7126 67.8082 36.5315 67.3897 36.3568 66.9651C36.2881 66.7965 36.2444 66.6216 36.0571 66.5404C36.0571 66.4218 36.1258 66.3468 36.2132 66.2781C37.6614 65.1478 38.5603 63.6053 39.428 62.0378C39.7588 61.4383 40.0522 60.8138 40.3706 60.1331C39.6902 60.2767 39.0847 60.4516 38.4729 60.5827C37.1807 60.8637 35.8699 61.0199 34.559 61.1635C34.3218 61.1885 34.0783 61.1885 33.8411 61.1323C32.5115 60.6327 31.2505 60.0144 30.1394 59.1151C28.7099 57.966 27.6799 56.5422 27.1306 54.7811C27.0932 54.6687 27.062 54.55 27.012 54.4439C26.9995 54.4126 26.9808 54.3939 26.9246 54.3689C26.5813 54.7499 26.444 55.2495 26.2505 55.7116C25.3578 57.8474 24.8771 60.0893 24.6649 62.3875C24.6399 62.656 24.5525 62.9183 24.6025 63.1931C24.59 63.3367 24.5713 63.4741 24.3902 63.5054L24.4215 63.4679Z" fill="#BBC5CB"/>
<path d="M76.9195 54.5688C76.5824 54.3814 76.2453 54.1878 75.9082 54.0005C75.4775 53.7569 75.0468 53.5196 74.6098 53.2823C74.4662 53.2074 74.3976 53.1075 74.3851 52.9326C74.2415 51.2277 74.0917 49.5228 73.9356 47.8242C73.8045 46.3441 73.661 44.8641 73.5236 43.3902C73.5049 43.2091 73.4987 43.0343 73.4924 42.8594C73.636 42.7907 73.7047 42.8969 73.7796 42.9531C79.51 47.0373 85.2529 51.1028 90.8585 55.3494C91.3704 55.7366 91.876 56.1425 92.3754 56.5485C92.4628 56.6171 92.5877 56.6671 92.6126 56.8357C90.1906 56.6234 87.7748 56.461 85.3466 56.3424C85.3903 56.4048 85.3466 56.3424 85.3466 56.3986C85.3466 56.4111 85.3466 56.4298 85.3591 56.436C87.9933 58.372 90.6775 60.233 93.3305 62.2439C93.1994 62.3001 93.1058 62.3501 92.9997 62.3813C90.2406 63.2868 87.4752 64.1798 84.7161 65.0979C84.404 65.204 84.198 65.1478 83.9483 64.9542C81.9508 63.4179 79.9345 61.9004 77.8683 60.4578C76.9694 59.8271 76.0705 59.2026 75.1279 58.653C74.9594 58.5531 74.8657 58.4469 74.847 58.2346C74.7721 57.4914 74.6847 56.742 74.5599 56.0051C74.5099 55.7241 74.6223 55.6367 74.8345 55.543C75.4525 55.2807 76.0705 55.0059 76.6885 54.7374C76.7696 54.6999 76.857 54.675 76.9319 54.5688H76.9195Z" fill="#BBC5CB"/>
<path d="M51.17 82.3028C51.7193 80.9539 52.3998 79.6737 53.0989 78.3997C53.5546 77.5691 54.0353 76.7635 54.5534 75.9704C54.6532 75.8143 54.7656 75.6582 54.9217 75.4396C54.9716 75.9704 54.8842 76.4075 54.8467 76.8447C54.6782 78.6932 54.4535 80.5355 54.1726 82.3715C53.9291 83.9515 53.667 85.5315 53.3424 87.1052C53.3236 87.1989 53.2487 87.3425 53.4048 87.4175C53.4922 87.7048 53.2987 87.9358 53.2362 88.1856C52.7369 90.2714 52.1813 92.351 51.6632 94.4306C51.5695 94.8053 51.4759 95.18 51.3386 95.5422C51.3573 95.6359 51.2761 95.6671 51.2324 95.7233C50.5583 96.4228 49.8904 97.1285 49.2162 97.8217C49.1225 97.9153 49.0414 98.034 48.9041 98.0714C48.3797 98.2151 47.924 98.4836 47.4871 98.9145V97.5281C48.6544 92.7882 49.8467 88.0545 50.9203 83.2958C50.9952 82.9586 51.1575 82.6525 51.1825 82.3028H51.17Z" fill="#BBC5CB"/>
<path d="M57.0192 79.5051C57.3001 78.5933 57.5872 77.6753 57.8619 76.7635C58.199 75.6457 58.4736 74.5091 58.7171 73.3662C58.742 73.2351 58.7857 73.1102 58.8731 72.9478C58.8731 73.4849 58.8419 73.9845 58.9418 74.4716C59.1852 75.6706 59.8844 76.5574 60.8769 77.2319C61.4013 77.5878 61.9693 77.8564 62.5561 78.0937C62.5374 78.1499 62.5374 78.1999 62.5124 78.2311C61.214 80.0296 60.2714 82.0218 59.3912 84.0452C58.6921 85.6564 58.0616 87.2926 57.4811 88.9413C57.4187 89.1161 57.35 89.2722 57.2252 89.4034C55.8643 90.8397 54.5035 92.2823 53.1427 93.7249C53.124 93.7437 53.0927 93.7499 53.0678 93.7624C52.9055 93.5938 52.9991 93.4252 53.074 93.2628C54.5909 90.0029 55.521 86.5557 56.3138 83.0647C56.5822 81.8844 56.8381 80.6978 57.0316 79.4988L57.0192 79.5051Z" fill="#BBC5CB"/>
<path d="M38.1484 104.335C37.9237 104.916 37.7364 105.422 37.5429 105.921C37.4618 106.134 37.3869 106.346 37.287 106.546C36.6752 107.839 36.5004 109.244 36.2133 110.618C35.7389 112.872 35.2832 115.139 34.815 117.393C34.7651 117.643 34.7339 117.893 34.7339 118.149C34.7401 118.961 34.7464 119.773 34.7526 120.585C34.7526 120.753 34.7651 120.903 34.5466 120.966C33.2295 121.365 31.9123 121.771 30.5952 122.177C30.5016 122.04 30.6077 121.94 30.6452 121.84C30.951 121.041 31.2507 120.241 31.594 119.461C31.9873 118.555 32.1059 117.587 32.3181 116.638C32.6302 115.208 32.9174 113.765 33.2107 112.329C33.217 112.291 33.2107 112.248 33.2107 112.098C31.8686 114.358 30.5702 116.532 29.2281 118.792C28.6913 117.106 28.1794 115.514 27.6676 113.915C27.6426 113.915 27.6114 113.915 27.5864 113.915C27.4616 114.527 27.3305 115.145 27.2056 115.757C26.9123 117.162 26.6251 118.574 26.3317 119.979C26.2693 120.272 26.2443 120.572 26.2506 120.872C26.2693 121.653 26.2631 122.433 26.2755 123.214C26.2755 123.414 26.2506 123.539 26.0196 123.607C24.715 124.001 23.4228 124.407 22.1306 124.812C22.0245 124.688 22.1244 124.6 22.1556 124.513C22.3491 124.007 22.5364 123.501 22.7486 123.008C23.1918 121.959 23.5227 120.878 23.7474 119.754C24.278 117.019 24.8585 114.296 25.4266 111.567C25.4703 111.355 25.4765 111.155 25.4703 110.942C25.4578 110.149 25.4516 109.35 25.4266 108.557C25.4203 108.332 25.5077 108.238 25.7012 108.176C26.7749 107.851 27.8486 107.514 28.9722 107.17C29.4217 109.212 29.8711 111.23 30.3206 113.272C30.4891 113.191 30.5203 113.053 30.5765 112.947C31.8624 110.555 33.1483 108.17 34.428 105.771C34.5653 105.515 34.7276 105.359 35.0148 105.278C35.9511 105.01 36.875 104.71 37.8051 104.423C37.8862 104.398 37.9736 104.379 38.1547 104.335H38.1484Z" fill="#BCC6CC"/>
<path d="M82.7625 76.3514C82.8749 75.5895 83.0809 74.9275 83.1621 74.1968C82.5253 74.3904 81.9261 74.559 81.3331 74.7589C81.0085 74.8713 80.584 74.8463 80.3905 75.1148C80.2157 75.3646 80.2282 75.7456 80.1595 76.0641C79.5727 78.8931 78.9922 81.7283 78.4054 84.5573C78.3804 84.6884 78.3492 84.8196 78.368 84.9819C79.2481 84.7134 80.0971 84.4386 80.9523 84.1888C81.1895 84.1201 81.1832 83.9328 81.2207 83.7704C81.358 83.1397 81.4829 82.5089 81.6015 81.8782C81.6327 81.7221 81.7138 81.5722 81.6764 81.4036C81.4454 81.3349 81.2706 81.5472 81.0646 81.4847C80.9772 81.4036 81.0085 81.3099 81.0022 81.2287C80.996 80.4044 80.996 79.58 80.9772 78.7494C80.9772 78.5433 81.0272 78.4372 81.2457 78.3685C82.619 77.9563 83.9923 77.5192 85.3656 77.0945C85.4031 77.082 85.453 77.0945 85.5341 77.0945C85.5341 77.8189 85.5341 78.5371 85.5341 79.249C85.5341 79.5051 85.5966 79.7923 85.4967 79.9984C85.3843 80.217 85.0535 80.2108 84.81 80.2732C84.5666 80.3357 84.5229 80.4918 84.4854 80.6916C84.217 81.9968 83.9424 83.302 83.6864 84.6072C83.649 84.8071 83.5678 84.9695 83.443 85.1256C82.9873 85.6626 82.5316 86.1997 82.0821 86.7493C81.9448 86.9179 81.7888 87.0241 81.5703 87.0865C79.8973 87.5986 78.2244 88.1169 76.5514 88.6478C76.308 88.7227 76.1395 88.7289 75.9772 88.4979C75.8086 88.2543 75.5964 88.0295 75.3841 87.8234C75.1906 87.6361 75.1532 87.43 75.2094 87.1802C75.4403 86.0935 75.6713 85.0132 75.8898 83.9265C76.5327 80.8165 77.1694 77.7065 77.8062 74.5903C77.8436 74.3904 77.9123 74.2281 78.0434 74.0719C78.499 73.5349 78.9547 72.9978 79.3979 72.4482C79.5478 72.2671 79.7101 72.1547 79.941 72.0798C81.614 71.5677 83.2869 71.0431 84.9598 70.5185C85.1846 70.4498 85.3469 70.4436 85.5029 70.6622C85.6652 70.8932 85.8587 71.1118 86.0647 71.3054C86.2957 71.524 86.3456 71.755 86.277 72.0673C86.1084 72.798 85.9649 73.5349 85.8213 74.2655C85.7713 74.5341 85.659 74.7089 85.4031 74.8463C84.5354 75.3147 83.6802 75.8143 82.7563 76.3451L82.7625 76.3514Z" fill="#F4F5FF"/>
<path d="M101.677 84.6697C101.714 84.8008 101.621 84.9132 101.577 85.0319C101.234 85.9124 100.884 86.7867 100.534 87.6673C100.272 88.323 100.185 89.0224 100.041 89.7344C100.222 89.6719 100.266 89.5345 100.335 89.4284C101.065 88.3605 101.777 87.2863 102.52 86.2309C102.807 85.825 102.981 85.4066 103.056 84.9195C103.1 84.6572 103.081 84.3449 103.256 84.1451C103.431 83.9515 103.743 83.9515 103.999 83.8703C104.954 83.5643 105.915 83.277 106.877 82.9773C106.977 82.9461 107.07 82.8774 107.183 82.9461C107.158 83.1022 107.045 83.2083 106.964 83.327C105.453 85.5315 103.949 87.736 102.432 89.9342C102.27 90.1715 102.201 90.3963 102.239 90.6836C102.388 91.9014 102.513 93.1254 102.651 94.3432C102.719 94.9677 102.788 95.5922 102.844 96.2167C102.869 96.5102 102.963 96.76 103.119 97.0098C103.525 97.6593 103.912 98.3212 104.299 98.977C104.455 99.2392 104.455 99.2455 104.174 99.3392C103.063 99.6889 101.951 100.032 100.797 100.395C100.478 98.2713 100.16 96.1917 99.8416 94.0871C99.4233 94.4431 98.899 95.3174 98.7991 95.792C98.6618 96.4352 98.5182 97.0785 98.3934 97.728C98.3559 97.934 98.3497 98.1464 98.3497 98.3525C98.3497 99.1955 98.3497 100.032 98.3497 100.875C98.3497 101.063 98.3122 101.169 98.1062 101.231C96.8016 101.625 95.5032 102.037 94.1985 102.437C94.0924 102.299 94.1985 102.199 94.2422 102.099C94.5481 101.3 94.8477 100.501 95.191 99.7201C95.5906 98.8146 95.7154 97.8466 95.9152 96.8974C96.4582 94.3307 96.9701 91.764 97.5007 89.1973C97.5569 88.9413 97.5506 88.6915 97.5506 88.4354C97.5444 87.686 97.5257 86.9366 97.5132 86.181C97.5132 85.9999 97.5257 85.8687 97.7379 85.8063C99.0113 85.4191 100.285 85.0256 101.558 84.6322C101.596 84.6197 101.646 84.6072 101.689 84.6572L101.677 84.6697Z" fill="#BCC6CC"/>
<path d="M68.4672 39.0437C68.4172 38.3693 68.5733 37.7073 68.5421 37.0391C68.7169 36.9954 68.7918 37.1078 68.8854 37.1702C69.1351 37.3326 69.3785 37.5137 69.622 37.6823C70.2899 38.1507 70.2899 38.1507 70.3149 38.9813C70.3836 41.498 70.446 44.021 70.5396 46.5377C70.6083 48.3987 70.6582 50.2535 70.7206 52.1145C70.7831 53.9755 70.858 55.8303 70.8954 57.6913C70.8954 57.9161 70.9266 58.1409 70.9391 58.3657C70.9516 58.5031 70.9079 58.5906 70.7456 58.5906C69.6532 58.5906 68.5546 58.5906 67.4621 58.5906C67.406 58.5906 67.3935 58.5468 67.3748 58.5094C67.7118 58.2721 68.1051 58.3845 68.4672 58.372C68.9978 58.347 69.0415 58.3345 69.0352 57.8099C69.004 55.5243 69.1226 53.2448 69.1538 50.9654C69.1788 49.3605 69.1413 47.7492 69.235 46.1505C69.3224 44.6767 69.2849 43.2091 69.3036 41.7353C69.3099 41.2232 69.4035 40.7174 69.4035 40.2053C69.4035 39.7931 69.2849 39.5121 68.8792 39.3747C68.7044 39.3185 68.5483 39.2248 68.4734 39.0437H68.4672Z" fill="#BBC5CB"/>
<path d="M68.4676 39.0437C68.711 39.1499 68.9545 39.2686 69.2042 39.3685C69.4414 39.4621 69.56 39.5995 69.535 39.8743C69.4976 40.3052 69.5787 40.7424 69.4539 41.1733C69.4351 41.242 69.4414 41.3232 69.4476 41.3981C69.4976 44.0834 69.3665 46.7626 69.329 49.4417C69.304 51.1465 69.329 52.8577 69.2354 54.5626C69.1729 55.7491 69.2042 56.9294 69.1667 58.1097C69.1542 58.4969 69.1605 58.5031 68.761 58.5031C68.299 58.5031 67.8309 58.5031 67.3689 58.5031C67.3377 57.5539 67.4501 56.6172 67.4938 55.6742C67.5624 54.1316 67.6623 52.5891 67.7559 51.0404C67.9245 48.2051 68.0868 45.3762 68.2553 42.5409C68.324 41.3731 68.3927 40.2053 68.4613 39.0375L68.4676 39.0437Z" fill="white"/>
<path d="M52.2438 110.056C52.3999 109.962 52.4061 109.818 52.4498 109.7C53.3362 107.295 54.2226 104.891 55.1153 102.493C55.2027 102.262 55.2401 102.037 55.2401 101.793C55.2276 100.969 55.2276 100.138 55.2214 99.3142C55.2214 99.1643 55.1964 99.0331 55.4087 98.9644C56.7383 98.5585 58.0617 98.1401 59.4599 97.7029C59.2539 98.2275 59.0854 98.6834 58.9044 99.133C56.8257 104.416 54.7407 109.7 52.6745 114.989C52.5559 115.283 52.3936 115.439 52.0878 115.526C51.295 115.745 50.5147 116.001 49.7469 116.238C49.6158 116.126 49.6595 115.995 49.6595 115.882C49.6283 111.255 49.5971 106.633 49.5659 102.006C49.5659 101.675 49.5659 101.344 49.5471 101.013C49.5409 100.85 49.5908 100.757 49.7407 100.713C51.0578 100.307 52.3687 99.9012 53.7545 99.4703C53.7045 99.6326 53.6796 99.7326 53.6359 99.8387C53.2613 100.8 52.8868 101.768 52.506 102.73C52.4436 102.886 52.3999 103.036 52.3936 103.205C52.3687 104.391 52.3375 105.578 52.3062 106.764C52.2813 107.739 52.2625 108.713 52.2438 109.693C52.2438 109.806 52.2438 109.924 52.2438 110.056Z" fill="#BCC6CC"/>
<path d="M92.0882 92.732C92.2443 91.9638 92.3754 91.3081 92.5065 90.6586C92.3941 90.54 92.3005 90.6274 92.2068 90.6586C91.489 90.8772 90.7773 91.1083 90.0595 91.3144C89.816 91.3831 89.6912 91.5017 89.635 91.7577C89.2542 93.6687 88.8547 95.5734 88.4614 97.4782C88.2242 98.621 87.9933 99.7638 87.7561 100.907C87.7311 101.032 87.6936 101.163 87.7436 101.331C88.6175 101.057 89.4727 100.788 90.3279 100.526C90.4964 100.476 90.5089 100.357 90.5339 100.22C90.6775 99.514 90.8273 98.8146 90.9709 98.1089C91.0021 97.959 91.0208 97.8216 91.1769 97.7342C92.1007 97.2159 93.0246 96.6913 93.9547 96.1667C94.067 96.3041 93.9734 96.4165 93.9547 96.5164C93.6551 98.0277 93.3429 99.539 93.0371 101.05C93.0121 101.188 92.9559 101.306 92.8685 101.413C92.3629 102.012 91.8635 102.605 91.3641 103.211C91.2705 103.323 91.1644 103.386 91.0333 103.423C89.2854 103.96 87.5438 104.504 85.8022 105.047C85.6399 105.097 85.5276 105.091 85.409 104.947C85.1655 104.647 84.9033 104.354 84.6349 104.067C84.5225 103.942 84.4976 103.823 84.535 103.661C84.8097 102.356 85.0719 101.05 85.3465 99.7451C85.9333 96.8974 86.5263 94.0559 87.1006 91.2082C87.1755 90.8335 87.3004 90.5025 87.5626 90.209C87.987 89.7469 88.3803 89.2535 88.7798 88.7601C88.9046 88.604 89.0545 88.4979 89.248 88.4354C90.9521 87.9108 92.6563 87.3925 94.3542 86.8554C94.5789 86.7867 94.71 86.818 94.8536 86.9928C95.0783 87.2738 95.3218 87.5361 95.5652 87.8047C95.6588 87.9108 95.715 88.017 95.6838 88.1669C95.4965 89.0599 95.3155 89.9592 95.1407 90.8522C95.1158 90.9709 95.0471 91.0333 94.9534 91.0895C94.0296 91.6141 93.112 92.1387 92.1007 92.7132L92.0882 92.732Z" fill="#BCC6CC"/>
<path d="M104.879 72.1547C105.072 72.2546 105.191 72.0985 105.353 72.1547C105.353 72.9041 105.353 73.666 105.353 74.4278C105.353 74.5715 105.297 74.6589 105.154 74.6777C104.91 74.7089 104.904 74.8837 104.904 75.0773C104.916 75.8455 104.916 76.6074 104.923 77.3755C104.923 78.0937 104.935 78.8181 104.941 79.5363C104.941 79.6924 104.941 79.8173 104.742 79.8797C103.437 80.2732 102.145 80.6791 100.853 81.0788C100.74 80.9539 100.834 80.8602 100.871 80.7728C101.221 79.8672 101.57 78.9555 101.933 78.0562C102.057 77.7439 102.132 77.4317 102.132 77.0945C102.132 76.6198 102.132 76.1452 102.132 75.6331C101.464 75.8392 100.84 76.0328 100.21 76.2264C100.085 76.2639 100.022 76.3513 99.9787 76.4762C99.754 77.0945 99.523 77.7127 99.292 78.331C99.2296 78.4933 99.2421 78.6557 99.2421 78.8181C99.2483 79.6424 99.2546 80.4668 99.2608 81.2973C99.2608 81.4472 99.2795 81.5784 99.0735 81.6408C97.7564 82.0405 96.4518 82.4527 95.041 82.8898C95.8026 80.9476 96.5329 79.0804 97.2633 77.2256C97.101 77.1132 96.9886 77.2881 96.8263 77.2131C97.1696 76.3388 97.513 75.4645 97.8563 74.5902C97.8875 74.509 97.9187 74.4091 98.0248 74.3966C98.3245 74.3654 98.3869 74.1281 98.4743 73.9033C99.5979 71.1242 100.728 68.3515 101.839 65.5724C101.945 65.3039 102.089 65.1728 102.363 65.0916C103.081 64.8855 103.793 64.6544 104.511 64.4359C104.592 64.4109 104.673 64.3547 104.816 64.4171C104.835 66.9963 104.854 69.5942 104.873 72.1672L104.879 72.1547Z" fill="#F4F5FF"/>
<path d="M115.384 85.9874C115.091 85.9562 114.81 85.8063 114.517 85.7188C114.074 85.5814 113.643 85.4128 113.2 85.2754C113 85.213 112.944 85.1256 113.006 84.9195C113.075 84.6947 113.1 84.4573 113.15 84.1951C112.85 84.2075 112.625 84.3262 112.388 84.3949C111.814 84.5635 111.246 84.7571 110.672 84.9195C110.434 84.9882 110.322 85.1131 110.284 85.3441C110.228 85.6689 110.153 85.9874 110.091 86.3121C110.029 86.6493 110.029 86.6556 110.353 86.8242C111.664 87.5174 112.981 88.2043 114.292 88.8913C114.373 88.935 114.448 88.985 114.529 89.0162C114.766 89.0974 114.785 89.2598 114.735 89.4783C114.511 90.515 114.305 91.5579 114.086 92.6008C113.955 93.2441 113.805 93.8873 113.687 94.5368C113.649 94.7553 113.568 94.9302 113.431 95.0988C112.962 95.6484 112.5 96.1979 112.045 96.7537C111.926 96.8974 111.789 96.9911 111.608 97.0473C109.891 97.5718 108.175 98.1027 106.458 98.6397C106.271 98.6959 106.146 98.6959 106.033 98.5336C105.971 98.4461 105.896 98.3774 105.827 98.2963C105.603 98.0215 105.228 97.8029 105.166 97.4657C105.11 97.1472 105.266 96.7912 105.334 96.454C105.559 95.3549 105.784 94.2557 106.015 93.1566C106.077 92.8694 106.083 92.8631 106.364 92.9505C107.007 93.1629 107.644 93.3752 108.281 93.5938C108.568 93.6937 108.555 93.6937 108.499 94.0184C108.449 94.3057 108.324 94.5867 108.362 94.9302C109.242 94.6554 110.097 94.3869 110.952 94.1184C111.065 94.0871 111.127 94.0372 111.152 93.9123C111.283 93.2378 111.421 92.5634 111.577 91.8889C111.627 91.6766 111.483 91.6328 111.352 91.5642C110.728 91.2332 110.103 90.9084 109.485 90.5774C108.705 90.1653 107.925 89.7469 107.138 89.3409C106.926 89.2285 106.839 89.1411 106.895 88.8663C107.22 87.405 107.513 85.9374 107.806 84.4698C107.837 84.3012 107.906 84.1638 108.019 84.0327C108.493 83.4706 108.967 82.9086 109.429 82.3403C109.56 82.1779 109.716 82.0905 109.91 82.0343C111.57 81.5222 113.231 81.0101 114.885 80.4855C115.153 80.3981 115.372 80.3731 115.534 80.6604C115.597 80.7728 115.697 80.879 115.803 80.9664C116.29 81.3598 116.352 81.8282 116.202 82.4277C115.921 83.5456 115.722 84.6822 115.491 85.8125C115.478 85.8687 115.472 85.9312 115.397 85.9874H115.384Z" fill="#BCC6CC"/>
<path d="M63.2237 101.906C64.0414 101.656 64.778 101.431 65.5146 101.206C65.602 101.35 65.5146 101.431 65.4771 101.525C65.1088 102.474 64.7218 103.417 64.366 104.373C64.2661 104.647 64.1038 104.772 63.8354 104.841C63.4734 104.935 63.1238 105.072 62.7617 105.172C62.5932 105.216 62.5183 105.291 62.4871 105.466C62.2311 106.739 61.9627 108.013 61.7068 109.294C61.7068 109.319 61.7193 109.35 61.7255 109.356C63.6481 109.094 65.2087 107.995 66.8567 107.077C66.9441 107.189 66.8879 107.289 66.8692 107.383C66.6382 108.513 66.401 109.643 66.1825 110.774C66.1263 111.055 66.0202 111.223 65.7081 111.317C63.0988 112.104 60.502 112.922 57.899 113.728C57.7741 113.765 57.6493 113.796 57.5119 113.84C57.4995 113.621 57.6118 113.465 57.668 113.309C57.9177 112.654 58.1611 111.985 58.4483 111.348C58.879 110.393 59.0351 109.369 59.2473 108.363C59.7779 105.815 60.2898 103.261 60.8204 100.707C60.8578 100.513 60.8766 100.326 60.8766 100.126C60.8766 99.2705 60.8766 98.4149 60.8703 97.5594C60.8703 97.3658 60.914 97.2596 61.1075 97.1971C63.8104 96.3666 66.5134 95.5235 69.2163 94.6867C69.2413 94.6804 69.2725 94.6867 69.3411 94.6991C69.2288 95.2237 69.1227 95.7483 69.0103 96.2729C68.8542 97.0223 68.6857 97.7654 68.5546 98.5148C68.5109 98.7709 68.3985 98.8208 68.1676 98.8208C67.5808 98.8146 67.0003 98.8271 66.4135 98.8271C65.989 98.8271 65.5833 98.9083 65.1838 99.0519C64.7718 99.1955 64.3598 99.3142 63.9415 99.4391C63.7792 99.4891 63.6981 99.564 63.6669 99.7389C63.5358 100.438 63.386 101.138 63.2237 101.925V101.906Z" fill="#BCC6CC"/>
<path d="M67.4188 110.668C67.6998 109.962 67.9494 109.25 68.2553 108.576C68.7922 107.389 69.0044 106.121 69.2603 104.86C69.7535 102.455 70.2466 100.051 70.746 97.6468C70.7959 97.4095 70.8209 97.1721 70.8209 96.9348C70.8084 96.123 70.8084 95.3111 70.7897 94.5055C70.7897 94.2745 70.8459 94.1683 71.0831 94.0996C73.4864 93.3627 75.8897 92.6133 78.2867 91.8639C78.474 91.8077 78.6113 91.7952 78.7549 91.9763C78.9858 92.2698 79.2418 92.5446 79.4977 92.8194C79.6288 92.9568 79.6413 93.0942 79.6038 93.269C79.1731 95.3486 78.7424 97.4344 78.3179 99.514C78.2742 99.7388 78.1806 99.9262 78.0183 100.101C77.7187 100.42 77.4627 100.775 77.1568 101.075C76.9072 101.319 76.8385 101.6 76.8385 101.925C76.8073 103.679 76.7012 105.434 76.7948 107.189C76.8385 107.982 76.9384 107.801 76.1955 108.038C75.0844 108.394 73.967 108.732 72.8497 109.075C72.781 109.094 72.7123 109.113 72.6437 109.131C72.5625 108.988 72.6624 108.888 72.6998 108.782C73.0244 107.876 73.349 106.977 73.6861 106.078C73.7922 105.796 73.8484 105.509 73.8609 105.203C73.8984 104.379 73.967 103.561 74.0232 102.736C74.0294 102.605 74.0232 102.468 74.0232 102.293C73.4864 102.455 72.987 102.612 72.4876 102.761C72.3503 102.805 72.3128 102.905 72.2878 103.03C72.0631 104.117 71.7885 105.191 71.6262 106.284C71.5325 106.933 71.6074 107.601 71.6074 108.263C71.6074 108.594 71.6074 108.925 71.6074 109.256C71.6074 109.394 71.57 109.475 71.4264 109.518C70.1218 109.912 68.8234 110.312 67.5187 110.711C67.5062 110.711 67.4937 110.705 67.4126 110.674L67.4188 110.668Z" fill="#BCC6CC"/>
<path d="M61.888 75.3521C61.0329 74.3904 61.1951 73.054 62.2813 72.3608C63.948 71.2991 65.7583 70.6247 67.7059 70.2999C69.1853 70.0564 70.6647 70.0564 72.1442 70.225C72.8995 70.3124 73.661 70.4311 74.3852 70.6746C74.3852 70.887 74.1979 70.9307 74.0606 71.0056C73.0805 71.524 72.0693 71.9861 71.0642 72.4607C70.827 72.5731 70.5773 72.5919 70.3152 72.5919C68.9044 72.5981 67.4999 72.7043 66.1078 72.9541C65.1715 73.1227 64.2664 73.3662 63.4174 73.8096C62.8556 74.1032 62.3874 74.4778 62.1315 75.0836C62.0816 75.196 62.0503 75.3521 61.8693 75.3521H61.888Z" fill="white"/>
<path d="M87.6937 85.2005C87.9871 84.4511 88.2181 83.7891 88.499 83.1459C88.9546 82.1092 89.2168 81.0226 89.4353 79.9172C89.9534 77.3443 90.484 74.7838 91.0146 72.2109C91.0458 72.0672 91.077 71.9236 91.0708 71.7488C90.74 71.8237 90.4466 71.9111 90.1719 72.0735C89.4228 72.5106 88.6613 72.9353 87.9059 73.3662C87.7748 73.4411 87.6438 73.5098 87.5252 73.5723C87.4128 73.4849 87.4627 73.3974 87.4752 73.3162C87.7124 72.1547 87.9559 70.9994 88.1868 69.8378C88.2368 69.588 88.3491 69.4693 88.5988 69.3944C91.6451 68.4576 94.6913 67.5084 97.7376 66.5654C97.8624 66.5279 97.981 66.4717 98.1496 66.4905C97.9686 67.396 97.7875 68.2828 97.6003 69.1758C97.5253 69.5568 97.4317 69.9377 97.3693 70.3186C97.3381 70.531 97.2382 70.5809 97.0384 70.5809C96.3456 70.5809 95.6589 70.5997 94.966 70.6122C94.8474 70.6122 94.7225 70.6122 94.6102 70.6371C93.986 70.7496 93.9547 70.7745 93.8236 71.4053C93.1869 74.4841 92.5565 77.5628 91.9135 80.6479C91.876 80.829 91.876 81.0038 91.8823 81.1849C91.8948 81.9781 91.9073 82.7774 91.9198 83.5705C91.9198 83.7329 91.9385 83.8765 91.7075 83.9452C90.3904 84.3387 89.0857 84.7571 87.6812 85.188L87.6937 85.2005Z" fill="#F4F5FF"/>
<path d="M45.9197 110.018C46.107 110.099 46.2256 109.962 46.3879 110.018C46.3879 110.686 46.3879 111.361 46.3879 112.035C46.3879 112.185 46.3255 112.273 46.2007 112.291C45.9197 112.329 45.9385 112.516 45.9385 112.722C45.9385 114.09 45.951 115.451 45.9822 116.819C46.0009 117.55 46.0945 117.375 45.4079 117.593C44.2281 117.974 43.0358 118.33 41.8435 118.699C41.7374 118.549 41.8622 118.436 41.9059 118.324C42.268 117.375 42.6425 116.425 43.0233 115.482C43.1045 115.283 43.1419 115.083 43.1357 114.87C43.1232 114.346 43.1981 113.828 43.1419 113.278C42.6238 113.359 42.1619 113.59 41.6687 113.69C41.2255 113.778 40.9509 114.002 40.8697 114.458C40.8385 114.633 40.7636 114.802 40.6887 114.964C40.2829 115.77 40.2018 116.619 40.2767 117.5C40.3141 117.974 40.3017 118.461 40.3141 118.942C40.3141 119.098 40.2829 119.198 40.1206 119.248C38.8035 119.648 37.4864 120.054 36.1693 120.454C36.163 120.454 36.1443 120.435 36.1006 120.397C36.8247 118.549 37.555 116.694 38.2916 114.814C38.1293 114.752 38.0045 114.908 37.8547 114.814C38.198 114.021 38.5413 113.228 38.8784 112.435C38.9096 112.366 38.9408 112.279 39.0157 112.273C39.3591 112.235 39.4153 111.96 39.5151 111.711C40.6325 108.869 41.7499 106.021 42.861 103.174C42.9546 102.93 43.0795 102.78 43.3417 102.705C44.1594 102.474 44.9709 102.212 45.8136 101.95C45.8948 104.66 45.8885 107.345 45.9073 110.031L45.9197 110.018Z" fill="#BCC6CC"/>
<path d="M39.4719 90.3401C39.6404 90.4213 39.6467 90.5712 39.6903 90.6899C40.4519 92.5946 41.2322 94.4868 42.0562 96.3666C42.2372 96.7787 42.2622 97.2096 42.2934 97.6406C42.3433 98.4024 42.2497 99.1706 42.2185 99.9325C42.2185 100.064 42.181 100.164 42.0499 100.213C41.4507 100.432 41.0012 100.832 40.6579 101.344C40.4956 101.294 40.5268 101.163 40.4956 101.075C40.0399 99.6327 39.5905 98.1901 39.2284 96.7225C38.8913 95.3736 38.8788 94.0247 39.0349 92.657C39.1223 91.8764 39.2596 91.102 39.4781 90.3401H39.4719Z" fill="white"/>
<path d="M57.0188 79.5051C57.1436 79.6175 57.1062 79.7549 57.0812 79.8798C56.819 81.2224 56.5381 82.5651 56.2322 83.9016C55.7765 85.9124 55.2335 87.8984 54.5655 89.8468C54.166 91.0209 53.7353 92.1887 53.1797 93.3003C53.1048 93.4502 53.0174 93.5938 53.0549 93.7687C52.5056 94.3869 51.95 95.0052 51.3258 95.5422C51.1884 95.3986 51.3258 95.2487 51.3507 95.1238C51.9375 92.7382 52.543 90.3589 53.1485 87.9795C53.1985 87.7797 53.3108 87.5986 53.392 87.4112C54.0287 86.2559 54.6592 85.1068 55.2085 83.9078C55.8327 82.5464 56.407 81.1662 56.9127 79.7549C56.9439 79.6674 56.9813 79.5863 57.0125 79.5051H57.0188Z" fill="white"/>
<path d="M69.4227 77.5941C69.7098 77.4567 70.0344 77.4692 70.3341 77.3755C70.5151 77.3193 70.5775 77.3943 70.5838 77.5691C70.5962 78.0937 70.6087 78.6183 70.6275 79.1429C70.6774 80.8977 70.7336 82.6526 70.7835 84.4012C70.821 85.7501 70.8584 87.099 70.8959 88.4479C70.9208 89.2598 70.9458 90.0654 70.9895 90.8772C71.002 91.1395 70.9208 91.2519 70.6712 91.3144C70.2217 91.4268 69.7847 91.5829 69.3603 91.7765C69.1855 91.6141 69.2105 91.3893 69.2105 91.1832C69.1917 88.704 69.2854 86.2309 69.3291 83.7517C69.354 82.2654 69.3665 80.7791 69.379 79.2928C69.379 78.7245 69.5413 78.1562 69.4164 77.5879L69.4227 77.5941Z" fill="#BBC5CB"/>
<path d="M65.0093 50.0287C61.9068 48.8796 58.6608 48.5486 55.3149 48.1489C55.4897 48.0677 55.5709 48.024 55.652 47.9928C55.7519 47.9553 55.8518 47.9178 55.9517 47.8929C57.4311 47.4495 58.948 47.1809 60.4898 47.0498C61.938 46.9249 63.3925 46.8562 64.847 46.9062C64.9219 46.9062 64.9968 46.9186 65.0717 46.9062C65.2714 46.8937 65.3339 46.9748 65.3151 47.1747C65.259 47.7118 65.2277 48.2488 65.1653 48.7859C65.1154 49.1981 65.1341 49.6227 65.0155 50.0349L65.0093 50.0287Z" fill="#BBC5CB"/>
<path d="M61.8882 75.3521C62.2253 74.2905 63.068 73.7597 64.0231 73.3975C65.1279 72.9728 66.2828 72.7605 67.4626 72.6481C68.505 72.5481 69.5475 72.4607 70.59 72.4732C70.7148 72.4732 70.8272 72.4545 70.9395 72.3983C72.0569 71.8549 73.1743 71.3116 74.2917 70.7621C74.3291 70.7433 74.3603 70.7059 74.3915 70.6746C75.1593 70.812 75.8772 71.1118 76.5888 71.4053C76.5576 71.5677 76.439 71.5614 76.3391 71.5927C74.8909 72.036 73.4864 72.5919 72.1256 73.2601C71.8759 73.385 71.6324 73.36 71.3827 73.335C69.1917 73.1477 67.0506 73.385 64.9532 74.0407C64.5661 74.1593 64.1916 74.3217 63.8483 74.534C63.7359 74.6027 63.6235 74.6839 63.5299 74.7776C63.1803 75.1273 63.224 75.6082 63.6298 75.8955C63.8295 76.0328 64.0543 76.114 64.2915 76.164C64.435 76.1952 64.5849 76.2264 64.7284 76.2639C64.3664 77.0882 64.51 76.9384 63.8295 76.6698C63.2303 76.4325 62.6685 76.114 62.1816 75.6769C62.0692 75.577 61.9444 75.4895 61.8882 75.3459V75.3521Z" fill="#BBC5CB"/>
<path d="M51.3197 37.8572C51.5882 37.5762 51.894 37.3451 52.2124 37.1203C52.562 38.1133 52.2561 43.2217 51.6818 45.0015C51.6818 44.4207 51.6943 43.8462 51.6818 43.2654C51.6693 42.6659 51.6319 42.0663 51.6006 41.4668C51.5694 40.8735 51.5195 40.274 51.3197 39.6308C49.3597 41.879 47.7304 44.2896 46.0824 46.7501C45.7454 46.2505 45.3833 45.8383 45.1086 45.3575C45.5019 44.7579 46.0075 44.2396 46.4632 43.69C47.9239 41.9227 49.3909 40.1616 50.8641 38.4005C51.0139 38.2194 51.2448 38.1008 51.3197 37.8572Z" fill="#BBC5CB"/>
<path d="M85.9209 89.5345C85.6338 90.2589 85.3841 90.9646 85.0845 91.6516C84.6787 92.5758 84.4228 93.5438 84.2293 94.5305C83.6862 97.2471 83.1244 99.9574 82.5626 102.674C82.5251 102.868 82.5126 103.061 82.5126 103.255C82.5126 104.11 82.5126 104.966 82.5126 105.821C82.5126 105.953 82.5376 106.078 82.3441 106.134C81.0145 106.54 79.6911 106.958 78.3428 107.376C78.3178 107.177 78.4114 107.039 78.4676 106.896C78.8172 106.003 79.1792 105.116 79.5226 104.223C79.8097 103.48 79.9033 102.68 80.0656 101.906C80.5962 99.3704 81.1081 96.8287 81.6325 94.2932C81.6886 94.0247 81.7136 93.7624 81.7136 93.4938C81.7011 92.7007 81.7011 91.9014 81.6824 91.1083C81.6824 90.9022 81.7323 90.7898 81.9446 90.7211C83.218 90.3339 84.4914 89.9342 85.7649 89.5408C85.7898 89.5345 85.8211 89.5408 85.9147 89.5408L85.9209 89.5345Z" fill="#BCC6CC"/>
<path d="M24.7776 105.284C25.2707 104.21 25.8575 103.186 26.438 102.156C26.8688 101.4 27.3182 100.657 27.8114 99.9449C28.0049 99.6639 28.2296 99.3954 28.4293 99.1143C28.5542 98.9395 28.704 98.8645 28.9225 98.8708C29.4593 98.8708 29.9899 98.7396 30.533 98.8021C30.6578 99.0144 30.508 99.183 30.4206 99.3391C29.553 100.894 28.679 102.449 27.8238 104.01C27.7302 104.185 27.6116 104.329 27.4181 104.41C26.6815 104.704 25.9511 105.016 25.2021 105.291C25.0647 105.341 24.9212 105.409 24.7776 105.291V105.284Z" fill="#BBC5CB"/>
<path d="M51.1698 82.3028C51.251 82.3715 51.2322 82.4589 51.2135 82.5464C50.8889 83.9203 50.5706 85.3004 50.246 86.6743C49.6654 89.1348 49.0849 91.6016 48.4544 94.0559C48.1798 95.1238 47.9051 96.1917 47.6242 97.2533C47.5992 97.3533 47.5555 97.4532 47.4744 97.5219C47.4744 97.372 47.4744 97.2221 47.4744 97.0785C47.5618 96.7412 47.4556 96.3978 47.5368 96.0605C47.6304 94.0496 47.9862 92.0762 48.4482 90.1216C49.0537 87.5549 49.9526 85.0818 50.9888 82.6588C51.0387 82.5339 51.1136 82.4215 51.1698 82.2966V82.3028Z" fill="white"/>
<path d="M25.1022 34.616C24.684 35.1968 24.1908 35.7151 23.6914 36.2522C23.1546 33.1172 22.9174 30.0072 23.9724 26.8785C24.1471 27.0846 24.1659 27.2969 24.2096 27.503C24.3719 28.8332 24.4967 30.1758 24.6652 31.506C24.7776 32.3803 24.9025 33.2546 25.0772 34.1227C25.1084 34.285 25.1147 34.4474 25.1022 34.616Z" fill="#BBC5CB"/>
<path d="M65.8579 92.8007C65.9266 91.9951 65.989 91.2644 66.0577 90.5337C66.195 89.0412 66.3323 87.5424 66.4697 86.0498C66.607 84.5573 66.7506 83.0585 66.8879 81.5659C66.9253 81.1475 66.969 80.7291 67.0002 80.3107C67.0065 80.1795 67.0439 80.1233 67.1813 80.1233C67.3373 80.1233 67.3935 80.1858 67.3873 80.3419C67.3685 81.11 67.3561 81.8719 67.3373 82.6401C67.2499 85.6751 67.1626 88.704 67.0752 91.739C67.0752 91.8764 67.0564 92.0076 67.0627 92.1449C67.0752 92.351 67.0065 92.4759 66.7818 92.5259C66.4946 92.5883 66.2137 92.6945 65.8579 92.8007Z" fill="white"/>
<path d="M67.2817 67.702C67.8186 67.5521 68.3741 67.5521 68.9234 67.5209C70.1532 67.4585 71.3767 67.446 72.6064 67.5459C73.7737 67.6396 74.9223 67.8019 76.0397 68.1516C76.2207 68.2079 76.408 68.2578 76.5765 68.3827C76.3268 68.7262 76.0584 68.8698 75.5902 68.8011C73.4429 68.4701 71.2768 68.3452 69.1045 68.4327C68.3616 68.4639 67.6126 68.5263 66.8697 68.6388C66.7386 68.6575 66.6013 68.6637 66.4702 68.6762C66.7199 68.3327 66.9321 67.9643 67.2755 67.702H67.2817Z" fill="#BBC5CB"/>
<path d="M68.9232 20.9207C69.098 20.8021 69.2978 20.8645 69.485 20.8583C69.6723 20.8583 69.6286 21.0144 69.6348 21.1268C69.6536 21.8325 69.6723 22.5382 69.691 23.2439C69.741 25.9167 69.7909 28.5896 69.8408 31.2625C69.8408 31.581 69.8471 31.5872 69.535 31.6247C69.2104 31.6621 68.8795 31.6934 68.5549 31.7246C68.7921 29.5326 68.7859 27.3281 68.9357 25.1361C69.0169 23.8996 69.0356 22.6506 69.1105 21.4079C69.123 21.2205 69.073 21.0519 68.9295 20.9207H68.9232Z" fill="#BBC5CB"/>
<path d="M76.576 66.6966C76.6259 66.7028 76.6821 66.7091 76.7321 66.7153C76.6384 67.0026 76.395 66.9151 76.2077 66.9026C74.2851 66.7653 72.3624 66.6778 70.4336 66.6716C69.7032 66.6716 68.9729 66.784 68.2425 66.7653C68.0927 66.7653 67.9304 66.7902 67.8305 66.9089C67.6807 67.0838 67.481 67.115 67.2812 67.1524C65.2774 67.4397 63.3048 67.8456 61.3885 68.5139C61.3323 68.5326 61.2761 68.5326 61.2199 68.5388C61.0763 67.9518 61.0763 67.9518 61.5882 67.7645C63.6919 66.9963 65.8704 66.5467 68.0989 66.3344C69.8655 66.1657 71.6321 66.1532 73.3924 66.2844C74.36 66.3531 75.3338 66.453 76.2888 66.6404C76.3762 66.6966 76.4886 66.6466 76.576 66.7028V66.6966Z" fill="white"/>
<path d="M35.2707 98.0215C35.458 99.4016 35.5017 100.688 35.4955 101.975C35.4955 102.174 35.4143 102.262 35.227 102.318C34.5841 102.518 33.9349 102.68 33.2295 102.986C33.3419 102.699 33.4043 102.474 33.5104 102.281C33.6665 101.993 33.6665 101.718 33.5728 101.419C33.4605 101.044 33.3855 100.663 33.2794 100.288C33.2482 100.163 33.2232 100.064 33.3294 99.9574C33.9536 99.3329 34.5716 98.7084 35.2645 98.0215H35.2707Z" fill="#0E7DB9"/>
<path d="M51.3194 37.8572C51.4193 37.9259 51.3444 37.9821 51.3007 38.0383C50.3581 39.1624 49.4155 40.2802 48.4791 41.4106C47.6552 42.3973 46.8561 43.409 46.0197 44.3832C45.7325 44.7204 45.5078 45.1264 45.1021 45.3574C44.9273 45.1326 44.765 44.9015 44.5777 44.6892C44.4154 44.5019 44.4529 44.377 44.6214 44.2083C45.8699 42.9968 47.0996 41.7665 48.3543 40.555C49.3156 39.6308 50.2769 38.7065 51.3132 37.8634L51.3194 37.8572Z" fill="white"/>
<path d="M68.2741 62.0066C66.5699 62.1752 64.897 62.4625 63.2615 63.1182C63.2802 62.7373 63.3052 62.4125 63.3114 62.0815C63.3114 61.9192 63.4425 61.8942 63.5486 61.8567C64.2041 61.6007 64.8782 61.3946 65.5649 61.2447C67.4376 60.845 69.329 60.6952 71.2392 60.7701C71.2267 61.0511 71.0019 61.0386 70.8209 61.0574C70.2716 61.1073 69.7285 61.2072 69.1792 61.2759C68.917 61.3134 68.6736 61.3821 68.6548 61.7131C68.6423 61.9504 68.4488 61.9691 68.2741 62.0066Z" fill="white"/>
<path d="M68.2736 62.0066C68.4609 61.9191 68.5795 61.8005 68.5482 61.5694C68.517 61.3321 68.6419 61.2384 68.8791 61.201C69.5533 61.1073 70.2212 60.9637 70.9016 60.9387C71.0452 60.9387 71.17 60.9137 71.2387 60.7701C72.1064 60.7451 72.974 60.8263 73.8417 60.9012C74.26 60.9387 74.672 60.9949 75.0839 61.0386C75.1089 61.2197 74.9591 61.2447 74.878 61.3134C74.7032 61.457 74.5034 61.5694 74.3411 61.7193C73.9666 62.0815 73.5483 62.1565 73.0302 62.094C71.5071 61.9129 69.9777 61.8692 68.4484 62.0128C68.3922 62.0128 68.3298 62.0128 68.2673 62.0003L68.2736 62.0066Z" fill="#BBC5CB"/>
<path d="M67.0131 65.5287C65.0031 65.7848 63.018 66.1657 61.1391 66.9776C60.9643 67.0525 60.8332 67.0525 60.7022 66.9151C60.621 66.8277 60.5211 66.759 60.4275 66.6841C60.4899 66.528 60.6397 66.5092 60.7521 66.4593C62.4812 65.6599 64.2977 65.1853 66.1767 64.898C68.2491 64.5795 70.3278 64.5545 72.419 64.6669C72.6562 64.6794 72.8934 64.7169 73.1368 64.7419C73.0619 65.0042 72.8372 64.948 72.6562 64.9542C71.9695 64.9729 71.2766 64.9729 70.59 64.9542C69.8846 64.9355 69.1855 65.0729 68.4801 65.0666C67.937 65.0666 67.4875 65.3289 67.0194 65.535L67.0131 65.5287Z" fill="white"/>
<path d="M25.1018 34.616C24.8709 34.1726 24.8584 33.673 24.771 33.1921C24.6649 32.6238 24.5837 32.0493 24.5151 31.4748C24.4339 30.844 24.3777 30.207 24.3153 29.57C24.2654 29.0954 24.2029 28.627 24.1592 28.1524C24.1405 27.9339 24.0719 27.709 24.2092 27.5029C24.7647 29.339 25.4576 31.125 26.2442 32.8799C26.3253 33.061 26.3441 33.1921 26.1942 33.3545C25.8197 33.7604 25.4639 34.1913 25.1018 34.6098V34.616Z" fill="white"/>
<path d="M67.2815 67.702C67.0568 68.0642 66.8633 68.4576 66.4762 68.6762C64.8033 68.9635 63.1741 69.3757 61.6697 70.2062C61.3575 70.3811 61.0579 70.5809 60.7458 70.812C60.546 70.5497 60.6584 70.3186 60.7833 70.1063C60.9643 69.8066 61.2389 69.5942 61.5261 69.4006C62.0879 69.0259 62.7059 68.7636 63.3426 68.5388C64.5162 68.1267 65.7334 67.8893 66.9631 67.7082C67.063 67.6958 67.1691 67.7082 67.2753 67.7082L67.2815 67.702Z" fill="white"/>
<path d="M69.4224 77.5941C69.5285 77.6253 69.6221 77.6628 69.6221 77.8002C69.6221 77.9375 69.6346 78.0749 69.6221 78.2061C69.4473 79.6861 69.6221 81.1724 69.5285 82.6525C69.4161 84.4386 69.5285 86.2247 69.4286 88.0045C69.3599 89.266 69.3849 90.5212 69.3662 91.7765C68.9792 91.9014 68.9729 91.9014 68.9792 91.5579C69.0291 87.9982 69.0853 84.4386 69.1352 80.8789C69.1477 79.886 69.1664 78.8993 69.1789 77.9063C69.1789 77.7252 69.1789 77.5691 69.4286 77.5941H69.4224Z" fill="#F4F4F3"/>
<path d="M67.0127 65.5288C67.1063 65.4288 67.2998 65.4288 67.2998 65.2228C67.2998 65.1166 67.406 65.0978 67.4996 65.0791C67.8492 65.0229 68.1987 64.9417 68.5545 64.9105C69.9091 64.7794 71.27 64.8231 72.6245 64.8106C72.7993 64.8106 72.9866 64.873 73.1427 64.7356C74.0103 64.7606 74.853 64.9167 75.7082 65.0604C75.702 65.1228 75.7082 65.1603 75.6895 65.1728C75.1776 65.6849 75.1714 65.6974 74.4411 65.6037C72.6994 65.3789 70.9578 65.3289 69.21 65.3726C68.4796 65.3914 67.7555 65.4725 67.0252 65.5288H67.0127Z" fill="#BBC5CB"/>
<path d="M67.2812 67.1462C67.4186 67.0276 67.6495 67.0525 67.7057 66.8027C67.7432 66.6529 67.918 66.6029 68.0803 66.6154C68.9043 66.6654 69.722 66.5405 70.5397 66.5217C71.8257 66.4905 73.1116 66.6029 74.3912 66.6404C75.0217 66.6591 75.6772 66.6154 76.3076 66.7778C76.4387 66.809 76.6073 66.8402 76.7321 66.7091C77.1816 66.7465 77.606 66.8839 78.0492 66.9589C78.249 66.9963 78.2927 67.09 78.2552 67.2711C78.2365 67.3461 78.2428 67.421 78.2428 67.4959C78.2303 67.677 78.1304 67.7145 77.9681 67.6708C77.3626 67.5084 76.7446 67.3898 76.1266 67.2899C75.0217 67.1088 73.9106 66.9714 72.787 66.9401C72.2813 66.9276 71.7695 66.8777 71.2638 66.8839C70.0528 66.9027 68.8481 66.9714 67.6433 67.1212C67.5247 67.1337 67.4061 67.1337 67.2875 67.14L67.2812 67.1462Z" fill="#BCC5CB"/>
<path d="M24.7774 105.284C25.0708 105.272 25.3142 105.122 25.5764 105.022C26.1569 104.791 26.7375 104.548 27.3242 104.329C27.5115 104.26 27.6176 104.16 27.7113 103.992C28.1295 103.217 28.5665 102.449 28.9909 101.681C29.4279 100.9 29.8649 100.12 30.2956 99.3329C30.3892 99.1643 30.5016 99.0019 30.5328 98.8021C30.6389 98.7771 30.7388 98.7709 30.8574 98.8208C30.5328 99.5577 30.2144 100.282 29.8961 101.007C29.4404 102.05 28.9784 103.092 28.5165 104.135C28.4478 104.291 28.3979 104.448 28.1794 104.516C27.0433 104.847 25.9197 105.209 24.7899 105.559C24.7649 105.565 24.7337 105.559 24.6837 105.559C24.6338 105.447 24.7149 105.378 24.7774 105.297V105.284Z" fill="#F4F5FF"/>
<path d="M68.923 20.9207C69.2664 20.9769 69.3163 20.9894 69.2539 21.2892C69.0916 22.0885 69.2789 22.9066 69.0916 23.6998C69.0853 23.731 69.0916 23.7622 69.0916 23.7872C69.1478 24.7427 69.0292 25.6982 68.9792 26.6536C68.9355 27.5279 68.9667 28.4147 68.8294 29.289C68.792 29.5388 68.8107 29.7949 68.8169 30.0509C68.8357 30.5193 68.767 30.9752 68.7295 31.4373C68.717 31.5809 68.6172 31.6371 68.5423 31.7246C68.4174 31.7558 68.3425 31.7246 68.3488 31.5747C68.3675 31.1875 68.3737 30.7941 68.3925 30.4069C68.4798 28.6271 68.5672 26.8535 68.6609 25.0737C68.7233 23.8309 68.7795 22.5944 68.8481 21.3516C68.8544 21.208 68.8294 21.0519 68.923 20.9207Z" fill="#F2F3F3"/>
<path d="M70.5649 62.6373C72.1317 62.6123 73.6735 62.7872 75.2029 63.1057C75.3028 63.1244 75.4027 63.1619 75.5088 63.1806C75.6898 63.2119 75.6586 63.3368 75.6336 63.4554C75.6087 63.5866 75.5213 63.6053 75.3964 63.5803C74.8658 63.4742 74.3477 63.3492 73.8109 63.2556C71.9382 62.9433 70.0655 62.8746 68.1741 63.0745C66.8132 63.2181 65.4836 63.4991 64.1915 63.93C64.1603 63.9425 64.1353 63.9488 64.1041 63.9613C64.0229 63.9862 63.9231 64.0487 63.8794 63.9238C63.8481 63.8239 63.8606 63.7115 63.9792 63.6553C64.0479 63.624 64.1166 63.599 64.1915 63.5741C65.5648 63.1494 66.9693 62.8559 68.405 62.7247C69.1229 62.6561 69.8408 62.6498 70.5586 62.6373H70.5649Z" fill="#E02224"/>
<path d="M68.7917 19.0285C68.8667 18.1042 68.9478 17.1737 69.0102 16.2495C69.0227 16.0371 69.0789 15.8998 69.3286 15.931C69.416 15.9435 69.5096 15.9185 69.597 15.9122C69.7531 15.8998 69.803 15.9747 69.8092 16.1246C69.8342 16.7865 69.8717 17.4423 69.8966 18.098C69.9091 18.379 69.9154 18.6663 69.9216 18.9473C69.5533 19.1347 69.185 19.2408 68.7917 19.016V19.0285Z" fill="#D1D6D9"/>
<path d="M69.3472 14.5883C69.3347 12.9896 69.3659 11.3846 69.4221 9.78592C69.4221 9.72347 69.4221 9.66102 69.4408 9.61106C69.4658 9.52987 69.5407 9.51114 69.6219 9.51114C69.7093 9.51114 69.7592 9.55485 69.7717 9.64228C69.7717 9.686 69.7717 9.72971 69.7717 9.77967C69.8029 11.3659 69.8404 12.9521 69.8716 14.5321C69.703 14.6445 69.5407 14.7507 69.3472 14.5883Z" fill="#D1D5D7"/>
<path d="M70.8833 34.0915C71.3078 34.0477 71.7135 34.1851 72.1318 34.2039C72.2691 34.2039 72.344 34.2788 72.3377 34.4349C72.3315 34.641 72.3377 34.8471 72.3377 35.1094C71.314 34.8846 70.3402 34.8034 69.3539 34.7909C69.2353 34.3787 69.3165 34.2476 69.6973 34.1726C70.0905 34.0915 70.4963 34.1789 70.8895 34.0977L70.8833 34.0915Z" fill="#BCC5CB"/>
<path d="M67.8057 33.5856C68.6796 32.4802 70.546 32.4552 71.4075 33.5106C70.2027 33.4232 69.0354 33.4107 67.8057 33.5856Z" fill="#DBDDDF"/>
<path d="M70.8831 34.0914C70.7645 34.2163 70.6022 34.1664 70.4648 34.1726C70.2464 34.1851 70.0279 34.1851 69.8094 34.2413C69.4037 34.3475 69.3974 34.335 69.3537 34.7909C68.6421 34.8846 67.9242 34.9283 67.2313 35.1406C67.1065 34.4412 67.1065 34.4287 67.7619 34.2663C68.7919 34.004 69.8406 34.0103 70.8893 34.0977L70.8831 34.0914Z" fill="#F2F2F2"/>
<path d="M68.7922 19.0285C69.1668 19.0035 69.5476 18.9848 69.9221 18.9598C70.0407 19.728 70.047 19.7529 69.2916 19.8029C68.7361 19.8404 68.6674 20.034 68.7423 19.2408C68.7485 19.1659 68.7735 19.0972 68.7922 19.0285Z" fill="#DC2A26"/>
<path d="M69.3474 14.5883C69.5222 14.5696 69.697 14.5509 69.8718 14.5321C69.8843 14.707 69.8905 14.8819 69.903 15.063C69.9155 15.2316 69.8281 15.294 69.672 15.3128C69.3287 15.3565 69.2913 15.3315 69.2975 14.9755C69.2975 14.8444 69.2788 14.707 69.3474 14.5883Z" fill="#D62F29"/>
<path d="M47.5368 96.0605C47.5617 96.404 47.6241 96.7475 47.4743 97.0785C47.4681 96.735 47.4494 96.3915 47.5368 96.0605Z" fill="#BBC5CB"/>
<path d="M76.5774 66.6968C76.4709 66.7281 76.3644 66.7344 76.2893 66.6342C76.3958 66.6154 76.4959 66.6216 76.5774 66.6968Z" fill="#BCC5CB"/>
<path d="M22.162 113.503C22.162 113.503 22.162 113.44 22.1745 113.422C22.1932 113.397 22.1308 113.347 22.2057 113.34C22.2057 113.365 22.2057 113.397 22.1932 113.422C22.187 113.447 22.1682 113.472 22.1558 113.49L22.162 113.497V113.503Z" fill="#0E7DB9"/>
<path d="M24.4213 63.4679C24.5024 63.393 24.5524 63.2993 24.5836 63.1931C24.8832 63.2993 24.7833 63.5616 24.7646 63.7552C24.5961 65.2602 24.7334 66.7465 24.9769 68.2328C25.058 68.7262 25.2265 69.1946 25.5012 69.613C25.7634 70.0252 26.038 70.0751 26.4438 69.8003C26.7871 69.5693 26.9931 69.2133 27.2303 68.8823C28.3227 67.3398 29.2778 65.7099 30.314 64.1236C30.9507 63.1494 31.7186 62.2876 32.6674 61.6069C33.0294 61.3509 33.3977 61.0886 33.8597 61.0199C34.7024 61.0573 35.5326 60.9137 36.3566 60.8075C37.7237 60.6264 39.072 60.3642 40.3954 59.952C40.4328 59.9395 40.4828 59.952 40.5327 59.9457C40.5764 60.0831 40.489 60.1768 40.4453 60.2767C39.6837 61.9441 38.8161 63.5553 37.6737 64.9979C37.2118 65.5787 36.6937 66.0846 36.0882 66.5155C35.4577 66.7528 34.8584 67.0713 34.2654 67.3835C32.605 68.2516 30.9632 69.1384 29.3028 70.0127C29.1093 70.1126 28.9657 70.25 28.8471 70.4248C28.329 71.1742 27.7921 71.9174 27.274 72.673C27.1429 72.8666 26.9806 73.004 26.7622 73.0977C25.8945 73.4662 25.0081 73.7097 24.053 73.4849C23.9781 73.4662 23.9094 73.4412 23.8345 73.4287C23.4537 73.3475 23.2914 73.1164 23.2165 72.723C22.5985 69.588 23.0168 66.5842 24.3401 63.6865C24.3713 63.6178 24.3901 63.5491 24.415 63.4804L24.4213 63.4679Z" fill="black"/>
<path d="M17.1056 105.921C16.9059 105.903 16.6999 105.884 16.5063 105.815C16.369 105.765 16.2254 105.728 16.1942 105.553C15.9008 104.198 15.8384 102.83 15.957 101.45C16.0631 100.251 16.2504 99.0706 16.6749 97.934C17.2055 96.5226 18.0232 95.3298 19.3279 94.5117C19.5651 94.3619 19.7961 94.237 20.077 94.3743C20.5451 94.7116 21.0383 95.0301 21.4378 95.461C22.6862 96.8036 23.0171 98.3212 22.3304 100.039C22.1307 100.232 21.8747 100.17 21.6438 100.163C20.5888 100.132 19.6837 100.519 18.8285 101.094C18.5788 101.263 18.4352 101.487 18.3728 101.787C18.1668 102.818 18.3728 103.723 19.1406 104.473C19.5027 104.828 19.4964 104.947 19.0844 105.241C18.6662 105.54 18.2292 105.796 17.7236 105.921C17.5176 105.971 17.3116 106.009 17.1056 105.921Z" fill="black"/>
<path d="M30.7826 72.2921C32.5929 70.9869 34.5779 70.0126 36.6816 69.2757C37.181 69.1009 37.5618 68.7699 37.9425 68.4327C38.9039 67.5833 39.7091 66.5966 40.4894 65.5849C41.02 64.898 41.5131 64.1861 42.05 63.3992C42.1124 63.7052 42.0687 63.9363 42.0375 64.1548C41.7316 66.3843 41.02 68.4639 39.7403 70.3374C39.4032 70.8307 39.0037 71.2804 38.6167 71.7425C38.4731 71.8799 38.2984 71.8986 38.1173 71.8924C35.8389 71.8549 33.5916 72.1859 31.3444 72.4607C31.1384 72.4857 30.895 72.5856 30.7764 72.2921H30.7826Z" fill="black"/>
<path d="M30.7825 72.2921C30.8699 72.4607 31.0197 72.3733 31.1321 72.3608C32.5678 72.1609 34.0036 72.0048 35.4455 71.8549C36.5005 71.7488 37.5617 71.7488 38.6229 71.7363C38.5729 72.0173 38.3981 72.1422 38.1297 72.2421C36.9624 72.6605 35.8263 73.1539 34.6902 73.666C33.3231 74.2842 32.006 74.9837 30.7388 75.7893C29.8025 76.3888 28.9161 77.0445 28.1545 77.8564C28.1046 77.9126 28.0484 77.9563 27.9485 78.0437C27.9423 77.7877 28.0484 77.6191 28.1171 77.438C28.192 77.2444 28.2544 77.0445 28.3355 76.8509C28.76 75.8267 29.2282 74.8213 29.7463 73.8408C29.971 73.4162 30.2145 73.0102 30.4642 72.5981C30.5391 72.4732 30.6327 72.3483 30.7763 72.2858L30.7825 72.2921Z" fill="#BBC5CB"/>
<path d="M17.1057 105.921C17.9734 105.834 18.6975 105.441 19.3405 104.897C19.3717 104.76 19.2656 104.729 19.2031 104.679C18.1482 103.842 17.9859 102.593 18.3479 101.425C18.3979 101.263 18.5102 101.181 18.6288 101.094C19.6463 100.326 20.7824 99.9387 22.0621 100.039C22.1495 100.045 22.2431 100.039 22.3305 100.039C22.3805 100.588 22.1745 101.1 22.0309 101.612C21.7063 102.749 21.2756 103.848 20.5515 104.804C20.0521 105.459 19.4653 106.003 18.6164 106.146C18.0982 106.234 17.5801 106.227 17.112 105.928L17.1057 105.921Z" fill="#BBC5CB"/>
<path d="M20.0769 94.3806C19.8772 94.3119 19.7336 94.4306 19.5775 94.518C18.5725 95.0925 17.8297 95.9106 17.2741 96.9161C16.6936 97.9777 16.3877 99.1268 16.2005 100.32C16.0257 101.437 16.0007 102.555 16.0382 103.679C16.0569 104.304 16.138 104.928 16.1942 105.553C16.0881 105.459 16.0444 105.334 16.0257 105.197C15.957 104.679 15.8946 104.16 15.8259 103.648C15.7385 102.961 15.7635 102.274 15.7573 101.587C15.7448 100.676 15.8634 99.7763 16.0007 98.8708C16.1568 97.8653 16.394 96.8848 16.7311 95.9231C17.1992 94.5867 17.8796 93.3627 18.7036 92.2136C18.766 92.1262 18.841 92.0575 18.9159 91.9825C18.9783 91.9201 19.0407 91.8639 19.1031 91.8077C19.2217 91.8888 19.2405 91.9888 19.2654 92.0887C19.4215 92.6945 19.5776 93.3002 19.7211 93.9122C19.7711 94.1308 19.9022 94.2682 20.0707 94.3868L20.0769 94.3806Z" fill="#BBC5CB"/>
<path d="M33.8604 61.0199C33.7855 61.0698 33.7231 61.1323 33.6419 61.1698C32.1999 61.838 31.1949 62.9808 30.3522 64.2798C29.3035 65.8847 28.3234 67.5334 27.2186 69.1072C27.0001 69.4132 26.7816 69.7192 26.4695 69.9377C26.0512 70.2437 25.7953 70.2063 25.477 69.7941C25.2085 69.4444 25.0525 69.0385 24.9464 68.6138C24.6405 67.4085 24.603 66.1845 24.603 64.9542C24.603 64.4921 24.6155 64.0237 24.6592 63.5616C24.6717 63.4429 24.7341 63.2931 24.5905 63.1994C24.4719 63.112 24.4907 62.9871 24.5032 62.8684C24.5905 62.1252 24.6717 61.3883 24.7903 60.6514C24.9713 59.5148 25.221 58.397 25.5706 57.2979C25.7703 56.6734 25.9763 56.0426 26.2572 55.4493C26.457 55.0184 26.6131 54.5563 26.9002 54.1629C26.9314 54.1192 26.9501 54.0567 27.0625 54.0505C27.1374 54.2878 27.2186 54.5376 27.2997 54.7874C27.7929 56.3611 28.7105 57.6663 29.934 58.7405C30.9889 59.671 32.2124 60.3329 33.5233 60.8388C33.6481 60.8887 33.7855 60.9137 33.8729 61.0199H33.8604Z" fill="white"/>
<path d="M22.6675 124.232C23.0046 123.382 23.2855 122.62 23.6038 121.884C23.841 121.328 23.9159 120.735 24.0345 120.147C24.4091 118.368 24.7649 116.582 25.127 114.802C25.3454 113.734 25.5639 112.672 25.7949 111.604C25.8323 111.442 25.8386 111.28 25.8386 111.117C25.8386 110.38 25.8386 109.643 25.8386 108.913C25.8386 108.544 25.8386 108.538 26.1757 108.432C26.8998 108.201 27.6301 107.976 28.3605 107.757C28.6351 107.676 28.6663 107.689 28.7413 108.007C28.9535 108.906 29.1532 109.812 29.353 110.711C29.6027 111.848 29.8461 112.984 30.0958 114.121C30.1083 114.19 30.1583 114.252 30.1895 114.315C30.3393 114.308 30.3518 114.184 30.4017 114.096C31.3381 112.354 32.2682 110.605 33.2045 108.863C33.7226 107.901 34.2532 106.939 34.7713 105.978C34.8462 105.84 34.9149 105.709 35.071 105.665C35.8512 105.428 36.6315 105.184 37.4618 104.935C37.4368 105.247 37.2932 105.459 37.2121 105.69C36.9187 106.49 36.5254 107.258 36.3444 108.095C36.0448 109.481 35.7763 110.867 35.4892 112.254C35.2395 113.465 34.9898 114.677 34.7339 115.888C34.5092 116.969 34.2407 118.043 34.3156 119.167C34.3406 119.523 34.428 119.873 34.4093 120.241C34.3968 120.491 34.3281 120.622 34.0784 120.697C33.1358 120.978 32.1995 121.278 31.207 121.584C31.2881 121.178 31.4567 120.847 31.6002 120.51C32.1246 119.298 32.4492 118.03 32.6989 116.738C33.036 114.952 33.4167 113.172 33.785 111.392C33.8724 110.974 33.9973 110.561 34.0035 110.112C32.4117 112.635 30.9385 115.22 29.3343 117.824C28.735 115.951 28.167 114.159 27.5927 112.36C27.5677 112.36 27.5427 112.372 27.5115 112.372C27.318 113.284 27.1245 114.196 26.9372 115.108C26.6501 116.507 26.3754 117.912 26.082 119.317C25.9447 119.979 25.8199 120.635 25.8511 121.315C25.876 121.871 25.8511 122.427 25.8573 122.983C25.8573 123.145 25.8386 123.264 25.6513 123.32C24.6962 123.601 23.7412 123.901 22.68 124.225L22.6675 124.232Z" fill="white"/>
<path d="M77.8371 85.6189C77.9057 85.6564 78.0119 85.569 78.118 85.5377C79.1355 85.2255 80.1467 84.9008 81.1705 84.601C81.4327 84.5261 81.5575 84.4012 81.6137 84.1201C81.8259 83.0023 82.0631 81.8907 82.3066 80.7291C82.0132 80.7291 81.7822 80.8915 81.4639 80.9102C81.4576 80.6042 81.4514 80.3169 81.4451 80.0234C81.4451 79.7237 81.4514 79.4239 81.4389 79.1241C81.4264 78.8993 81.4826 78.7744 81.726 78.6995C82.7498 78.3997 83.761 78.075 84.7785 77.7627C85.0844 77.669 85.0969 77.6753 85.1031 77.9688C85.1094 78.4622 85.1031 78.9618 85.1156 79.4551C85.1156 79.655 85.0532 79.7861 84.8597 79.8048C84.2354 79.861 84.1168 80.2795 84.0232 80.804C83.8172 81.9843 83.5488 83.1522 83.3116 84.3325C83.2616 84.5885 83.1618 84.8071 82.987 85.0069C82.6 85.4441 82.2254 85.8937 81.8571 86.3496C81.7073 86.5307 81.5325 86.6431 81.3078 86.7118C79.7909 87.1802 78.2678 87.6486 76.7572 88.1294C76.4762 88.2231 76.3202 88.1544 76.1017 87.9546C75.7084 87.5861 75.6647 87.2177 75.7709 86.7181C76.6011 82.7837 77.4001 78.8494 78.2116 74.915C78.2678 74.634 78.3739 74.3842 78.5737 74.1594C78.9607 73.7222 79.3352 73.2663 79.7035 72.8104C79.8284 72.6543 79.9782 72.5419 80.1717 72.4857C81.7323 72.0048 83.2929 71.524 84.8534 71.0306C85.0906 70.9557 85.228 71.0056 85.3903 71.193C85.8959 71.7863 85.9021 71.78 85.7398 72.5419C85.6275 73.0727 85.5151 73.5973 85.4152 74.1281C85.3903 74.2718 85.3403 74.3842 85.2093 74.4529C84.635 74.7776 84.0607 75.1024 83.4177 75.4646C83.5488 74.8026 83.6612 74.2093 83.7735 73.6285C83.6424 73.5286 83.5488 73.6098 83.4552 73.641C82.4064 73.9595 81.364 74.2967 80.3153 74.6028C80.0843 74.6714 79.9657 74.7839 79.922 75.0212C79.2104 78.4996 78.4925 81.9843 77.7747 85.4628C77.7684 85.5065 77.7559 85.5502 77.8558 85.6252L77.8371 85.6189Z" fill="#0E7DB9"/>
<path d="M103.836 99.0394C103.231 99.233 102.663 99.4203 102.095 99.6014C101.839 99.6826 101.577 99.7513 101.321 99.8388C101.14 99.9012 101.083 99.8388 101.058 99.6577C100.896 98.4024 100.665 97.1534 100.509 95.8982C100.397 94.9989 100.222 94.1058 100.072 93.2066C100.066 93.1629 100.072 93.1191 99.9597 93.0879C99.4541 93.8311 98.8174 94.5368 98.4866 95.3923C98.2057 96.1042 98.1682 96.9036 97.9934 97.6592C97.906 98.0589 97.9123 98.4586 97.906 98.8645C97.906 99.3017 97.9123 99.7388 97.906 100.17C97.8935 101.013 98.0309 100.838 97.2131 101.113C96.5639 101.331 95.896 101.512 95.2406 101.712C95.1032 101.756 94.9597 101.793 94.7537 101.856C94.866 101.569 94.9534 101.338 95.0408 101.106C95.2905 100.482 95.5527 99.8575 95.7836 99.2267C96.0021 98.6335 96.0583 98.0027 96.1894 97.3907C96.514 95.8732 96.8199 94.3556 97.1382 92.8381C97.3879 91.6266 97.6439 90.4151 97.8935 89.2035C97.9185 89.0849 97.906 88.9662 97.906 88.8413C97.906 88.0607 97.906 87.2801 97.906 86.4994C97.906 86.2496 97.9809 86.1435 98.2431 86.0685C99.1607 85.8062 100.072 85.5065 101.04 85.2067C100.959 85.6751 100.753 86.0498 100.615 86.4495C100.397 87.0677 100.072 87.6548 99.9348 88.298C99.7288 89.2472 99.5478 90.1965 99.3605 91.1457C99.3355 91.2581 99.2544 91.3643 99.2918 91.5204C99.4292 91.5079 99.4791 91.4018 99.5415 91.3081C100.222 90.3026 100.902 89.3034 101.583 88.298C101.964 87.7422 102.319 87.1677 102.725 86.6368C103.156 86.0748 103.412 85.4565 103.487 84.7633C103.512 84.5073 103.624 84.4011 103.849 84.3324C104.641 84.0951 105.434 83.8391 106.233 83.5955C106.277 83.7891 106.146 83.8703 106.077 83.9702C104.991 85.5689 103.892 87.1552 102.8 88.7476C102.507 89.1785 102.213 89.6157 101.914 90.0466C101.832 90.159 101.751 90.2777 101.801 90.4151C101.932 90.7585 101.882 91.127 101.939 91.4767C102.051 92.1637 102.07 92.8756 102.145 93.5688C102.219 94.237 102.313 94.899 102.394 95.5672C102.432 95.8607 102.438 96.1604 102.482 96.4602C102.525 96.7412 102.619 96.9723 102.763 97.2096C103.075 97.7217 103.381 98.2338 103.686 98.7459C103.73 98.8208 103.768 98.9082 103.836 99.0456V99.0394Z" fill="white"/>
<path d="M58.7482 98.39C58.6858 98.7209 58.5235 99.0207 58.3987 99.3392C57.3749 101.962 56.3387 104.579 55.3087 107.195C54.4223 109.437 53.5422 111.679 52.6558 113.921C52.5371 114.227 52.431 114.54 52.3124 114.846C52.2687 114.958 52.2313 115.07 52.0939 115.114C51.4385 115.314 50.7893 115.52 50.1401 115.72C50.0402 115.551 50.0777 115.395 50.0714 115.251C49.9279 110.811 50.0028 106.365 49.9778 101.918C49.9778 101.781 49.9778 101.65 49.9466 101.519C49.8842 101.213 49.9466 101.075 50.215 100.988C51.0702 100.713 51.9254 100.457 52.7868 100.189C52.8618 100.164 52.9367 100.139 52.9991 100.201C53.0802 100.282 53.0241 100.363 52.9928 100.451C52.7057 101.175 52.4248 101.9 52.1376 102.624C52.0502 102.849 51.9691 103.067 51.9753 103.317C52.0253 105.522 51.8567 107.726 51.863 109.931C51.863 110.599 51.7943 111.273 51.7943 111.948C51.7943 112.098 51.7943 112.248 51.7943 112.466C52.0565 112.06 52.1564 111.654 52.2999 111.273C53.0178 109.35 53.7045 107.42 54.4098 105.497C54.7781 104.485 55.1589 103.48 55.5397 102.468C55.6333 102.224 55.677 101.981 55.6646 101.719C55.6333 101.032 55.7207 100.338 55.5834 99.6514C55.5397 99.4391 55.6209 99.2955 55.8643 99.2205C56.8131 98.9458 57.7495 98.646 58.6921 98.3587C58.7046 98.3587 58.717 98.3712 58.7482 98.39Z" fill="white"/>
<path d="M92.6815 91.9451C92.7065 91.4268 92.8376 91.0271 92.9 90.6212C92.9063 90.5774 92.9375 90.5337 92.9375 90.49C92.9312 90.3589 93.0623 90.209 92.9687 90.1091C92.8438 89.9717 92.6878 90.1028 92.5504 90.1403C91.5766 90.4338 90.6091 90.746 89.6353 91.0333C89.448 91.0895 89.3669 91.1645 89.3294 91.3581C89.1297 92.351 88.9174 93.344 88.7114 94.3369C88.3931 95.8545 88.0809 97.372 87.7688 98.8895C87.594 99.7513 87.4255 100.613 87.257 101.475C87.1758 101.887 87.2008 101.912 87.619 101.781C88.2869 101.569 88.9611 101.356 89.629 101.144C89.9287 101.05 90.2283 100.957 90.5279 100.875C90.7464 100.819 90.84 100.688 90.8775 100.47C91.0148 99.7388 91.1771 99.0082 91.3207 98.2775C91.3394 98.1714 91.3582 98.0652 91.4643 98.009C92.1135 97.6468 92.7627 97.2846 93.4493 96.8974C93.3869 97.5531 93.2059 98.1339 93.0998 98.7334C92.9749 99.4391 92.8126 100.132 92.6815 100.838C92.6503 101.007 92.5941 101.156 92.4818 101.281C92.0011 101.793 91.5704 102.349 91.121 102.893C91.0086 103.03 90.8588 103.08 90.6965 103.13C89.3107 103.555 87.9249 103.973 86.5391 104.398C86.3393 104.46 86.1396 104.523 85.9461 104.597C85.8587 104.629 85.765 104.679 85.6901 104.61C85.4904 104.429 85.3031 104.235 85.1034 104.054C84.8599 103.829 84.9411 103.58 84.9972 103.311C85.6152 100.32 86.2083 97.322 86.8325 94.3307C87.051 93.294 87.2882 92.2636 87.4567 91.2207C87.5316 90.7648 87.8625 90.5025 88.1059 90.1715C88.3681 89.8093 88.674 89.4783 88.9611 89.1348C89.086 88.9787 89.2358 88.8601 89.4293 88.8039C91.0148 88.3167 92.6004 87.8359 94.1797 87.3363C94.4481 87.2489 94.6042 87.3175 94.7602 87.5111C94.9038 87.686 95.0411 87.8609 95.1909 88.0295C95.2659 88.1169 95.2783 88.2043 95.2534 88.3167C95.0973 89.0287 94.9537 89.7468 94.8039 90.4588C94.7602 90.6711 94.6541 90.8272 94.4481 90.9396C93.8676 91.2457 93.3058 91.5829 92.6691 91.9513L92.6815 91.9451Z" fill="white"/>
<path d="M102.569 75.0149C101.664 75.2897 100.778 75.5645 99.8915 75.833C99.7479 75.8767 99.6793 75.9766 99.6293 76.114C99.3734 76.8197 99.1174 77.5254 98.8553 78.2248C98.7928 78.3872 98.8053 78.5496 98.8053 78.712C98.8053 79.4489 98.8053 80.1858 98.8178 80.9164C98.8178 81.1163 98.7866 81.2474 98.5556 81.3099C97.7067 81.5597 96.864 81.8282 96.0213 82.0905C95.9838 82.103 95.9339 82.0905 95.834 82.0905C96.5706 80.2045 97.3009 78.3497 98.025 76.5075C97.8627 76.3888 97.7566 76.5637 97.6443 76.4825C97.6443 76.4575 97.6193 76.4263 97.6318 76.4013C97.8066 75.9392 97.9876 75.477 98.1686 75.0212C98.2123 74.9087 98.2373 74.7589 98.3684 74.7401C98.6867 74.6902 98.7429 74.4341 98.8428 74.2031C99.9414 71.4802 101.053 68.7574 102.139 66.0284C102.276 65.6911 102.451 65.4851 102.813 65.4039C103.237 65.3102 103.643 65.1478 104.061 65.0229C104.367 64.9355 104.386 64.948 104.392 65.2852C104.405 66.4843 104.405 67.6895 104.417 68.8886C104.423 70.0439 104.43 71.1992 104.442 72.3546C104.442 72.4982 104.405 72.6543 104.492 72.7854C104.629 72.8604 104.754 72.6918 104.91 72.7854C104.966 73.2164 104.917 73.6597 104.923 74.1031C104.923 74.228 104.854 74.3092 104.742 74.328C104.467 74.3717 104.473 74.559 104.48 74.7651C104.492 76.1328 104.498 77.4942 104.505 78.8618C104.505 78.968 104.498 79.0742 104.505 79.1741C104.53 79.3927 104.43 79.4926 104.224 79.555C103.35 79.8173 102.476 80.0921 101.596 80.3606C101.508 80.2045 101.614 80.0921 101.658 79.9797C101.92 79.2927 102.189 78.612 102.457 77.9251C102.507 77.8002 102.569 77.669 102.569 77.5379C102.582 76.7136 102.569 75.8892 102.569 75.0024V75.0149Z" fill="#0E7DB9"/>
<path d="M109.617 86.6681C109.598 86.8804 109.748 86.9554 109.898 87.0303C110.734 87.4612 111.577 87.8983 112.413 88.3355C112.956 88.6165 113.493 88.9163 114.049 89.1911C114.28 89.3035 114.342 89.4658 114.292 89.6969C113.961 91.3019 113.637 92.9131 113.306 94.518C113.281 94.6554 113.212 94.7678 113.125 94.874C112.669 95.4111 112.214 95.9481 111.764 96.4852C111.664 96.6101 111.527 96.6663 111.383 96.71C110.172 97.0847 108.955 97.4594 107.744 97.8341C107.357 97.9528 106.97 98.059 106.589 98.1963C106.421 98.2588 106.302 98.2276 106.19 98.1027C106.109 98.0152 106.021 97.9341 105.934 97.8466C105.672 97.5781 105.541 97.3096 105.64 96.8911C105.896 95.8357 106.077 94.7616 106.296 93.6937C106.352 93.4189 106.414 93.3815 106.695 93.4751C107.051 93.5875 107.407 93.7062 107.757 93.8311C108.1 93.9498 108.106 93.9622 108.031 94.312C107.969 94.6055 107.913 94.899 107.856 95.1925C107.806 95.4485 107.838 95.486 108.112 95.4048C108.787 95.2112 109.461 94.9989 110.129 94.7991C110.472 94.6929 110.809 94.5805 111.159 94.4806C111.352 94.4244 111.471 94.3307 111.508 94.1246C111.658 93.3315 111.808 92.5446 111.983 91.7578C112.033 91.5454 111.97 91.458 111.802 91.3768C111.377 91.1582 110.959 90.9209 110.534 90.7023C109.592 90.209 108.643 89.7219 107.7 89.2348C107.282 89.0162 107.27 89.0162 107.363 88.5541C107.632 87.2239 107.906 85.8937 108.175 84.5635C108.2 84.4511 108.243 84.3699 108.312 84.2887C108.743 83.7704 109.174 83.2521 109.604 82.7337C109.754 82.5526 109.935 82.4465 110.16 82.3778C111.714 81.8969 113.275 81.4098 114.823 80.9102C115.041 80.8415 115.185 80.8852 115.341 81.0413C115.528 81.2224 115.653 81.441 115.828 81.6284C115.909 81.7158 115.909 81.8032 115.89 81.9156C115.659 83.0272 115.422 84.1326 115.204 85.2442C115.16 85.4566 115.048 85.4753 114.885 85.4253C114.461 85.2879 114.036 85.1381 113.606 85.0007C113.425 84.9382 113.393 84.832 113.443 84.6509C113.512 84.4074 113.556 84.1576 113.599 83.9078C113.643 83.658 113.599 83.6205 113.35 83.683C113.131 83.7392 112.919 83.8079 112.707 83.8703C111.876 84.1264 111.052 84.3887 110.222 84.6447C110.116 84.6759 110.016 84.7134 109.991 84.8321C109.86 85.4441 109.735 86.0561 109.611 86.6743L109.617 86.6681Z" fill="white"/>
<path d="M68.8359 95.1987C68.7173 95.817 68.6174 96.3416 68.5113 96.8662C68.4302 97.2783 68.3428 97.6842 68.2554 98.0902C68.2054 98.3212 68.1056 98.4649 67.8246 98.4336C67.5874 98.4087 67.344 98.4524 67.1068 98.4274C65.8708 98.29 64.7534 98.7646 63.6173 99.1268C63.4301 99.1893 63.3551 99.3017 63.3239 99.4766C63.1554 100.307 62.9869 101.144 62.8121 101.975C62.7309 102.368 62.8058 102.443 63.1866 102.331C63.6423 102.193 64.1042 102.05 64.5599 101.912C64.6723 101.881 64.7784 101.825 64.9407 101.85C64.6973 102.462 64.4163 103.042 64.2416 103.654C64.073 104.248 63.7484 104.572 63.1429 104.647C62.4313 104.735 62.1129 105.103 62.0068 105.859C61.8195 107.183 61.4762 108.488 61.2016 109.806C61.1953 109.85 61.1703 109.893 61.1703 109.893C61.3326 110.012 61.4263 109.924 61.5199 109.893C62.3377 109.643 63.1554 109.406 63.9607 109.144C64.3602 109.013 64.6972 108.744 65.0655 108.544C65.4089 108.357 65.746 108.163 66.083 107.97C66.1579 107.926 66.2391 107.876 66.3764 107.882C66.3078 108.245 66.2453 108.607 66.1704 108.963C66.0643 109.475 65.9457 109.981 65.8521 110.499C65.8084 110.749 65.7023 110.899 65.4526 110.974C64.279 111.33 63.1117 111.692 61.9381 112.06C60.852 112.397 59.7658 112.735 58.6859 113.072C58.5423 113.116 58.405 113.159 58.2552 113.209C58.1428 112.997 58.2864 112.841 58.3426 112.691C58.5423 112.16 58.7483 111.629 58.9855 111.111C59.2914 110.437 59.3788 109.706 59.5286 108.994C59.9094 107.202 60.2652 105.397 60.6335 103.605C60.8208 102.686 61.0018 101.762 61.2078 100.844C61.2452 100.663 61.264 100.488 61.264 100.313C61.264 99.5203 61.264 98.7209 61.264 97.9278C61.264 97.5718 61.2827 97.5718 61.6198 97.4657C62.8183 97.0972 64.0168 96.7163 65.2154 96.3478C66.4014 95.9794 67.5812 95.6172 68.8484 95.2237L68.8359 95.1987Z" fill="white"/>
<path d="M73.2428 108.432C73.4426 107.882 73.6174 107.295 73.8608 106.74C74.1792 105.996 74.2728 105.216 74.3103 104.423C74.3477 103.617 74.4039 102.811 74.4601 102.006C74.4726 101.787 74.4476 101.75 74.2042 101.818C73.6486 101.987 73.0993 102.193 72.5312 102.324C72.0755 102.43 71.9382 102.693 71.8633 103.117C71.7072 104.042 71.5012 104.96 71.2952 105.878C71.2578 106.059 71.2453 106.234 71.2453 106.415C71.2453 107.208 71.2453 108.007 71.2453 108.8C71.2453 109.15 71.2391 109.144 70.8895 109.25C70.1904 109.469 69.4912 109.693 68.7921 109.918C68.5798 109.987 68.3738 110.068 68.1117 110.074C68.0867 109.837 68.2365 109.65 68.3052 109.456C68.5361 108.825 68.8046 108.207 69.048 107.576C69.254 107.046 69.3164 106.477 69.435 105.921C69.691 104.71 69.9282 103.498 70.1779 102.281C70.4713 100.85 70.7647 99.4204 71.0643 97.9903C71.1642 97.5219 71.3077 97.0535 71.2266 96.5727C71.1329 96.0356 71.1642 95.4985 71.1579 94.9552C71.1517 94.4681 71.1579 94.4618 71.6386 94.3057C72.8496 93.9248 74.0668 93.5563 75.2841 93.1816C76.2392 92.8881 77.2005 92.5883 78.1493 92.2823C78.3241 92.2261 78.4365 92.2386 78.5863 92.3698C79.0669 92.7757 79.2604 93.2128 79.0919 93.8686C78.786 95.0676 78.5738 96.2916 78.3241 97.5032C78.193 98.1464 78.0432 98.7834 77.9246 99.4329C77.8871 99.6265 77.7873 99.7514 77.6687 99.8887C77.3253 100.282 76.9945 100.688 76.6449 101.075C76.5138 101.219 76.4764 101.375 76.4639 101.562C76.3578 103.436 76.3765 105.309 76.3765 107.183C76.3765 107.614 76.4202 107.539 76.0144 107.664C75.1592 107.926 74.2978 108.188 73.4426 108.457C73.3864 108.476 73.3302 108.513 73.2366 108.419L73.2428 108.432Z" fill="white"/>
<path d="M91.6825 71.1305C90.3154 71.3054 89.2792 72.1172 88.1369 72.7043C88.037 72.5169 88.1369 72.3608 88.1743 72.2109C88.3117 71.5177 88.4677 70.8308 88.5926 70.1376C88.63 69.9315 88.7174 69.8253 88.9172 69.7629C91.7262 68.8948 94.529 68.0268 97.338 67.1525C97.3942 67.1337 97.4504 67.1337 97.5378 67.115C97.5003 67.5521 97.3817 67.9581 97.3006 68.364C97.207 68.8324 97.1071 69.307 97.0134 69.7754C96.9385 70.1188 96.9385 70.1251 96.5765 70.1313C96.0209 70.1438 95.4653 70.1501 94.9098 70.1501C94.4791 70.1501 94.092 70.3374 93.6925 70.4498C93.5115 70.4998 93.5177 70.6684 93.4865 70.8183C93.1682 72.3733 92.8436 73.9283 92.519 75.4895C92.1881 77.0882 91.8635 78.6932 91.5327 80.2919C91.464 80.6292 91.4266 80.9726 91.4391 81.3161C91.4515 81.9593 91.4453 82.6088 91.464 83.2521C91.464 83.4644 91.4078 83.5768 91.1956 83.6455C90.3466 83.9015 89.5039 84.1701 88.6612 84.4261C88.6238 84.4386 88.5738 84.4261 88.5114 84.4261C88.5364 84.1763 88.6425 83.964 88.7424 83.7517C89.3479 82.4027 89.6974 80.9789 89.9846 79.5363C90.5277 76.801 91.102 74.0719 91.6638 71.3429C91.6763 71.2866 91.6763 71.2304 91.6887 71.1243L91.6825 71.1305Z" fill="#0E7DB9"/>
<path d="M42.4183 118.112C42.6367 117.531 42.8303 117.031 43.0175 116.532C43.0675 116.407 43.0987 116.276 43.1673 116.157C43.4482 115.626 43.5107 115.064 43.5231 114.465C43.5294 114.002 43.5981 113.54 43.5918 113.078C43.5856 112.766 43.5356 112.722 43.2485 112.803C42.5057 113.022 41.7628 113.259 41.02 113.484C40.8639 113.534 40.7703 113.634 40.7141 113.784C40.4582 114.483 40.1835 115.183 39.9338 115.888C39.8901 116.007 39.9026 116.157 39.9026 116.288C39.9026 117.038 39.8964 117.787 39.9026 118.543C39.9026 118.767 39.8464 118.911 39.6155 118.98C38.6978 119.254 37.7865 119.536 36.8688 119.817C36.8439 119.823 36.8189 119.81 36.7502 119.792C36.975 119.217 37.1934 118.649 37.4182 118.087C37.8863 116.906 38.3545 115.72 38.8227 114.54C38.9226 114.283 38.9226 114.283 38.5855 114.146C38.754 113.653 38.96 113.172 39.2035 112.71C39.2347 112.647 39.2971 112.566 39.3595 112.554C39.6779 112.504 39.7278 112.235 39.8152 112.004C40.7141 109.706 41.613 107.408 42.5181 105.11C42.7491 104.523 42.9926 103.948 43.2173 103.361C43.2797 103.192 43.3733 103.08 43.5481 103.03C44.0912 102.874 44.6343 102.705 45.1774 102.543C45.4271 102.468 45.4708 102.493 45.4708 102.755C45.477 103.299 45.4708 103.836 45.4708 104.379C45.4708 105.597 45.4957 106.814 45.4708 108.026C45.452 108.794 45.6018 109.55 45.5581 110.312C45.5519 110.487 45.5831 110.611 45.8141 110.53C45.9452 110.486 46.0076 110.574 46.0076 110.699C46.0076 111.042 46.0076 111.392 46.0076 111.736C46.0076 111.879 45.9202 111.967 45.8016 111.992C45.5581 112.042 45.5581 112.21 45.5581 112.404C45.5581 113.559 45.5581 114.714 45.5581 115.87C45.5581 116.201 45.5457 116.532 45.5581 116.863C45.5644 117.069 45.4832 117.156 45.296 117.212C44.3659 117.493 43.442 117.781 42.3995 118.105L42.4183 118.112Z" fill="white"/>
<path d="M79.0234 106.665C79.0859 106.252 79.2856 105.884 79.4292 105.497C79.5728 105.116 79.7226 104.741 79.8849 104.373C80.1408 103.792 80.197 103.161 80.3281 102.549C80.7401 100.607 81.1209 98.6647 81.5204 96.7225C81.6764 95.9481 81.8387 95.1737 82.0073 94.3993C82.0697 94.1058 82.0822 93.8123 82.0759 93.5125C82.0572 92.7756 82.0697 92.0387 82.0634 91.3018C82.0634 91.1395 82.1259 91.0583 82.2819 91.0145C83.1808 90.7398 84.0797 90.4525 84.9786 90.1715C85.0535 90.1465 85.1284 90.1278 85.1846 90.2027C85.2345 90.2714 85.1971 90.3463 85.1721 90.415C84.9661 90.9459 84.7851 91.4892 84.5479 92.0013C84.1983 92.7569 84.0485 93.5625 83.88 94.3681C83.5866 95.7857 83.3057 97.2033 83.0123 98.621C82.7314 99.9824 82.4505 101.338 82.1758 102.699C82.1446 102.843 82.1633 102.999 82.1633 103.149C82.1633 103.929 82.1633 104.71 82.1633 105.49C82.1633 105.672 82.1321 105.796 81.9261 105.859C80.996 106.134 80.0721 106.427 79.142 106.708C79.1233 106.714 79.0921 106.689 79.0422 106.665H79.0234Z" fill="white"/>
<path d="M102.781 67.9893C102.75 69.3507 102.713 70.7183 102.681 72.0797C102.675 72.442 102.669 72.7979 102.663 73.1601C102.663 73.285 102.65 73.4099 102.513 73.4536C101.789 73.6785 101.065 73.9033 100.228 74.1593C101.077 72.0298 101.882 69.9939 102.688 67.9643C102.719 67.9705 102.75 67.983 102.775 67.9893H102.781Z" fill="#F2F5FF"/>
<path d="M72.5561 100.17C72.4874 100.076 72.4999 99.9824 72.5187 99.9012C72.7996 98.7896 72.9806 97.6593 73.224 96.5352C73.2927 96.2229 73.43 96.048 73.7484 95.9606C74.7409 95.6796 75.721 95.3673 76.701 95.0676C76.7572 95.0488 76.8134 95.0239 76.882 95.0738C76.9507 95.1987 76.9195 95.3424 76.8883 95.4922C76.6573 96.5976 76.4201 97.703 76.2016 98.8146C76.1704 98.9707 76.1454 99.0956 75.9644 99.1518C74.8782 99.4765 73.7983 99.8138 72.7122 100.145C72.656 100.163 72.5998 100.163 72.5499 100.17H72.5561Z" fill="#BCC6CC"/>
<path d="M41.4319 111.81C42.1747 109.793 42.9113 107.795 43.6729 105.734C43.7852 105.884 43.7727 105.99 43.7603 106.084C43.6042 107.052 43.6791 108.026 43.6854 109C43.6854 109.675 43.5855 110.343 43.5855 111.017C43.5855 111.167 43.5293 111.273 43.3732 111.317C42.774 111.492 42.1747 111.679 41.5755 111.854C41.5505 111.86 41.5193 111.842 41.4319 111.817V111.81Z" fill="#BCC6CC"/>
<path d="M100.996 73.4474C101.414 72.392 101.795 71.4365 102.194 70.4373C102.288 70.5685 102.263 70.6747 102.263 70.7683C102.251 71.4428 102.232 72.1173 102.232 72.7917C102.232 73.0103 102.157 73.1164 101.951 73.1664C101.664 73.2413 101.383 73.3288 100.996 73.4474Z" fill="#08090A"/>
<path d="M76.4765 95.5297C76.258 96.5851 76.052 97.5531 75.8585 98.5211C75.8273 98.6772 75.7898 98.7959 75.615 98.8458C74.7723 99.1019 73.9296 99.3641 73.0931 99.6202C72.9745 99.4766 73.0494 99.3392 73.0681 99.2205C73.2367 98.3837 73.4115 97.5531 73.5863 96.7163C73.6175 96.5726 73.6175 96.4165 73.8047 96.3603C74.6724 96.0918 75.5401 95.8232 76.4765 95.5297Z" fill="black"/>
<path d="M42.0371 111.298C42.4491 110.174 42.8361 109.131 43.2169 108.088C43.3418 108.088 43.3043 108.17 43.3043 108.213C43.2793 109.006 43.2356 109.806 43.2356 110.599C43.2356 110.886 43.117 110.992 42.8736 111.055C42.6176 111.117 42.368 111.205 42.0371 111.298Z" fill="#050505"/>
</svg>
